<svg fill="none" height="120" viewBox="0 0 120 120" width="120" xmlns="http://www.w3.org/2000/svg" xmlns:xlink="http://www.w3.org/1999/xlink"><linearGradient id="a" gradientUnits="userSpaceOnUse" x1="60.0902" x2="60.0902" y1="89.7849" y2="29.6919"><stop offset="0" stop-color="#614034"/><stop offset="1" stop-color="#8c5340"/></linearGradient><circle cx="60" cy="60" fill="#d9d9d9" r="60"/><g clip-rule="evenodd" fill-rule="evenodd"><path d="m17.4239 60.023c1.368-1.934 2.11-2.365 4.941-2.554 4.175-.278 5.87-1.033 9.212-3.23 1.008-.663 1.774-.304 2.579.298.027.0199.0585.0328.0917.0377s.067.0015.0986-.0097c.0316-.0113.0599-.0301.0825-.0549.0227-.0247.0389-.0546.0472-.0871.649-2.547 1.12-5.225 1.7-7.797.009-.0387.0065-.0792-.0071-.1165s-.0378-.0699-.0696-.0937-.0698-.0379-.1094-.0406c-.0397-.0026-.0792.0064-.1139.0258-1.008.567-1.987 1.158-3.035 1.635-1.225.556-1.581.128-2.3-.723-1.052-1.25-1.123-1.745-.275-2.568 1.731-1.681 4.56-2.707 6.783-3.683.039-.0158.0718-.0439.0934-.08.0217-.036.031-.0782.0266-.12-.167-2.465 1.728-1.906 4.019-1.55.0334.0066.0679.0042.1-.007 4.98-1.788 10.497-3.654 15.773-4.463 2.946-.449 4.948.627 4.755 3.747-.096 1.614-1.011 1.603-1.93.905-.641-.491-2.893-.021-4.293.278-3.96.848-6.946 1.731-10.708 3.174-.0334.0123-.0629.0334-.0854.061-.0226.0276-.0372.0608-.0426.096l-.228 1.407c-.0055.0347-.002.0702.0102.1031.0123.0329.0329.0621.0598.0846.0269.0226.0592.0378.0937.0442.0346.0063.0702.0036.1033-.0079 3.153-1.069 5.743.303 8.108 2.312.107.093.27.05.32-.082 2.28-5.945 7.755-5.87 10.228-.794.0133.0279.0329.0524.0572.0715.0243.0192.0526.0325.0828.039.0303.0065.0616.0059.0916-.0016.03-.0076.0578-.0219.0814-.0419.534-.448.89-.716 1.528-1.022.0322-.0144.0598-.0372.0799-.0661s.0319-.0628.0341-.0979c.1-1.05.242-2.077.157-3.053-.164-1.856 1.022-1.966 2.315-1.567 1.033.32 1.931.844 2.822 1.428.146.097.31.008.313-.163.018-.574.036-1.133.075-1.707.11-1.45 1.05-1.628 2.148-1.446.997.167 2.041.613 3.01.983.128.05.267-.039.278-.178.139-2.116.36-2.721 2.212-2.255 1.062.267 2.198.966 3.17 1.543.121.07.342.021.367-.118.36-1.906.513-3.274 2.334-2.64 3.263 1.137 2.767 3.174 2.368 5.821-.025.171.164.303.307.207 2.782-1.853 4.22-.585 4.139 2.144-.0012.0306.0046.0611.0169.0892.0123.028.0307.0529.054.0729.0233.0199.0508.0343.0804.042.0297.0078.0607.0088.0907.0029l2.134-.396c.0451-.0092.0859-.033.1161-.0677s.0481-.0784.0509-.1243c.129-2.914.068-4.431 1.913-6.148 2.804-2.608 6.8081-1.6 8.0971 2.19.649 1.903-.028 3.908-.869 5.622-1.845 3.758-2.255 3.971-.602 7.662.012.0277.03.0523.053.0721.023.0197.05.034.079.0419l3.555 1.19c2.65.887 2.362 3.102 1.703 5.18-.4 1.257-.691 1.844-1.447 2.728-1.036 1.21-1.916 3.687-2.483 5.275-.014.0349-.017.0731-.01.11.413 2.106.313 3.3-1.543 4.436-.041.0241-.073.062-.089.107-1.182 3.405-1.617 3.12-5.0221 3.12-4.916 0-9.679.125-14.58-.17-2.034-.122-2.394-1.22-3.043-2.911-1.674-1.877-1.927-2.408-2.28-4.617-.028-.174-.252-.239-.36-.096-4.174 5.55-5.677 6.494-11.27 1.275-.0198-.0188-.0433-.0334-.0689-.0428-.0257-.0095-.053-.0136-.0803-.0122s-.054.0083-.0786.0203c-.0245.0121-.0463.029-.0642.0497-2.544 2.87-2.757 2.621-5.835.38-.0223-.0167-.0479-.0287-.075-.035-.0272-.0064-.0554-.007-.0828-.002-.0274.0051-.0535.0158-.0766.0315-.0231.0156-.0427.0359-.0576.0595-1.91 2.96-2.583 3.726-6.035 1.332-.0236-.0166-.0506-.0278-.079-.033s-.0577-.0042-.0856.0029c-.028.0072-.0542.0202-.0767.0383-.0225.0182-.0408.0409-.0537.0668-1.535 3.007-1.824 5.005-4.948 3.02-.036-.024-.0788-.0354-.122-.0327s-.0842.0194-.117.0477c-2.96 2.401-4.135 3.573-6.558 1.46-1.268-1.107-1.955-2.18-2.696-3.576-.0186-.0341-.0466-.0621-.0806-.0809-.0339-.0188-.0726-.0276-.1113-.0253-.0388.0023-.0761.0156-.1076.0383-.0316.0227-.056.0539-.0705.0899-1.094 2.796-1.771 4.235-3.599 6.415-2.165 2.586-4.157.499-6.611-1.856-.0252-.0241-.0562-.0412-.0899-.0498-.0338-.0087-.0692-.0084-.1029.0006-.0336.0091-.0644.0266-.0893.051s-.0431.0547-.0529.0882c-.51 1.67-1.161 3.166-1.97 4.217-1.407 1.827-2.66 1.193-4 .064-2.971-2.504-3.28-3.719-2.953-6.982.342-3.388 1.296-6.116 3.505-8.524 1.336-1.46.06-2.455-1.225-1.753-.42.228-.695.456-1.02.663-1.189.744-1.734.107-2.468-.723-1.14-1.283-1.05-1.79-.107-3.121zm43.317-27.563c.947-.086 2.38.22 2.636 1.118.078.271.007.52-.146.699-.225.263-.567.167-.663-.157-.246-.802-.88-1.097-1.856-1.361-.299-.078-.267-.269.029-.299zm2.098-1.69c1.386-.434 3.27-.844 4.688-.424.441.129.623.35.701.67.196.794-.288.702-.805.545-1.642-.499-2.892-.556-4.488-.385-.926.1-.641-.231-.096-.406z" fill="#fefefe"/><path d="m70.0812 78.137c1.119.962 3.445 1.835 3.452.007.759.196 1.489.214 2.073-.213.852-.62.894-1.554.203-1.906.26-.413.56-.976.624-1.49.163-1.278-1.696-1.752-1.931-.57-.06.3-.036.6499.018.9479-.966-.68-1.532.6381-1.553 1.3651-1.525-2.17-5.728 1.367-6.972 2.483-.238.213.118.7369.239.4159.032-.082.139-.2559.25-.3669.662-.652 1.253-1.2401 2.058-1.7521 1.158.648 2.184.9221 3.028-.3919-.242.516-.499.79-.705.958-.01.01-.004.0319.01.0319 1.853.018 3.73-.9049 4.279-2.3579-.531 2.03-3.2 2.928-4.994 2.672-.097-.015-.15.107-.079.167zm-15.146-20.2191c-1.639-.638-3.38.4351-2.854 1.4461.15.285.599.2.723-.096.36-.858.977-1.2901 2.13-1.3501zm38.343-10.8999c.267.392.282 1.05-.007 1.656-.0287-.0553-.0674-.1048-.114-.146-.142.381-.267.613-.652.884-.0061-.0498-.0258-.0969-.057-.1361-.1404.1872-.3144.3466-.513.4701-.0057-.0308-.0187-.0597-.0378-.0844-.0192-.0247-.0439-.0445-.0722-.0576-.203.324-.403.424-.698.513-.0001-.0285-.0058-.0567-.0168-.0829-.011-.0263-.027-.0501-.0472-.0701-.2769.0561-.5586.0845-.841.085.012-.0623.0006-.1267-.032-.181-.303.032-.61-.011-.909-.122.314-.203.474-.37.642-.726-.0328-.0604-.0882-.1054-.154-.125.179-.278.378-.477.62-.698-.0267-.0298-.0589-.054-.095-.0712-.036-.0171-.0752-.0269-.115-.0288.153-.32.214-.3881.456-.6341-.0336-.0385-.0745-.0701-.1203-.0927-.0458-.0227-.0957-.036-.1467-.0393.22-.2.442-.3699.698-.4769-.0156-.104-.017-.2097-.004-.314.232-.014.303-.053.439-.17.249-.222.766-.335 1.147-.225.38.107.367.246.295.584.203-.442.178-1.1181.06-1.5461-.024-.092-.045-.128-.081-.153-.078-.053-.085-.103-.021-.143.053-.035.174-.085.196-.003.206.759.213 1.553-.289 2.18-.787.98-1.76 1.8951-2.754 2.5541.5033-.2656.9776-.583 1.415-.9471.007-.004.017.003.014.014-.1317.1808-.2757.3522-.431.5131.26-.164.53-.492.69-.702.097-.128.136-.178.254-.292.2731-.2595.5311-.5342.773-.823.003-.007.014-.003.014.004.01.224.014.43-.032.659.1-.154.128-.4951.135-.7131 0-.06.022-.114.057-.16l.129-.1599c.0125-.0156.0285-.028.0467-.0363s.038-.0123.058-.0116c.02.0006.0395.006.0571.0155s.0327.023.0442.0394zm-1.777 2.486c.146-.26.231-.516.238-.744.157.135.068.488-.238.744zm.855-.734c.074-.25.1-.488.057-.687.163.089.153.41-.057.687zm-.606-1.8801c.296-.086.577-.1109.809-.0609-.1-.196-.478-.1841-.809.0609zm-.324.7581c.278-.135.552-.206.79-.196-.131-.174-.505-.103-.79.196zm-.766.6339c.303-.064.584-.067.812-.003-.085-.2-.463-.221-.812.003zm-.399.6841c.239-.11.47-.167.67-.157-.107-.146-.424-.092-.67.157zm-19.65 4.29c.4781.1996.9898.3069 1.508.316-.73.35-2.074.556-1.899-.114.01-.0406.0286-.0785.0545-.1113s.0585-.0597.0956-.0789.0778-.0303.1195-.0325.0834.0045.1224.0196zm.229-1.372c-.16.922 1.756 1.157 2.522 1.207-.855-.285-1.543-.72-2.102-1.346-.135-.15-.384-.06-.42.139zm1.086.88c-.48-.118-.894-.385-.994-.684-.028-.09.093-.193.143-.064.132.341.467.57.851.748zm2.857.726c-1.592.178-3.598.88-4.182 2.469-.399 1.08.83 1.2249 1.24.4099.787-1.554 1.471-2.1769 2.942-2.8789zm-2.027.666c-1.061.456-1.816 1.2969-2.016 1.9599-.064.206.232.3881.35.0891.355-.905.85-1.493 1.666-2.049zm.382 1.707c-.959 1.92-1.906 4.688-1.5 6.935.203 1.13 2.365 1.8309 1.81-.1781-.624-2.251-.745-4.6879-.31-6.7569zm-1.012 3.39c-.225.96-.438 2.8969-.014 3.7479.128.257.63.3201.47-.0779-.506-1.29-.492-2.408-.456-3.67zm-27.707 1.39c.951.403 1.414.73 2.023 1.39.21.23.602.188.724-.097.26-.602-.26-1.906-2.747-1.293zm2.533.916c.153-.236-.221-.581-.45-.688-.205-.0895-.422-.1481-.644-.174.324.174.766.3949.93.8009.036.082.093.1721.164.0611zm-11.649 1.8449c-1.585-2.29-5.168-2.6-5.022-.638.0081.116.0464.2277.1111.3242.0647.0966.1536.1745.2577.226.1041.0516.2199.075.3359.068.116-.0071.2281-.0444.3253-.1081 1.235-.802 2.247-.6241 3.992.1279zm-4.684-.8229c-.157-.264.232-.634.485-.741.377-.164.865-.2 1.268-.135-.684-.015-1.144.213-1.45.883-.04.09-.232.118-.303-.007zm4.068-.492c-.385-.537-.98-1-1.557-1.172-.188-.057-.224-.32-.078-.456.37-.352 1.372.271 1.635 1.628zm20.248-4.395c-.798-.367-1.497-.4141-1.892-.3351-.385.075-.541-.2959-.181-.4809.54-.278 1.556.242 2.073.816zm-35.359 5.282c-.306.267-.523.275-.82-.007-.366-.345-.758-.8051-.964-1.2181-.075-.153-.097-.285.024-.517 1.176-2.276 2.669-2.7069 5.112-2.7819 3.413-.103 6.348-1.3891 9.194-3.4161.506-.36 1.001.168 1.29.524.353.442.69.9831.196 1.4711-2.593 2.561-5.112 3.245-8.525 3.53-.064.004-.082.0929-.021.1209 3.534 1.728 4.47 4.225 3.9 7.855-.47 2.992-2.497 8.6311-4.028 11.0431-.852 1.332-1.421 1.093-2.768-.121-1.39-1.25-2.561-2.383-2.533-4.482.04-3.056 1.015-6.9531 3.174-8.9121.66-.595 1.008-.7479 1.678-.4129.78.395 1.67.887 2.216 1.52 1.1-5.186-3.2-7.633-7.125-4.196zm58.256-23.6701c-.117 1.909-.413 4.6231-.445 6.8461-.958.46-2.308 1.97-2.814 2.486-.26.271-.613.513-.552-.391.139-2.18.823-4.5961.923-6.9541.053-1.268-.481-1.457-1.999-1.735-1.204-.217-.645.795-.748 1.831-.071.72-.214 1.693-.353 2.676-.1076-.0193-.2179-.0159-.324.01-.25.082-.399.104-.773.05-.253-.032-.826.157-1.293.324.029-.563.047-1.054.05-1.428 0-.438-.278-.688-.58-.905-.596-.42-.973-.588-1.653-.798-.389-.117-.741.036-.649.467.096.42.096.573.075 1.047-.0429.9731-.1263 1.9439-.25 2.91-.149.075-.299.154-.452.232-.1813.0951-.3224.2521-.3977.4424-.0752.1903-.0796.4014-.0123.5947l.467 1.35c-.092.552-.192 1.115-.292 1.688-.157-.157-.441-.196-1.061.285-.52.406-1.172 1.108-1.7 1.507-.31.232-.544.353-.534-.143.018-.983.599-2.1871.89-3.1381.21-.687.108-.8199-.26-1.1299-.2629-.2183-.5466-.4102-.847-.573-.132-.755-.499-1.4251-1.133-2.0801-.826-.851-2.123-1.468-3.28-.99-.133-.129-.442-.16-.67-.064-3.039 1.271-3.652 6.0731-3.274 9.0401.139 1.108.346 1.461.994 2.049.573.523 1.072.862 1.703 1.15 1.047.485 1.11.389 1.852-.274.883-.794 1.6-1.77 2.173-2.832.288.367.673.6909 1.122 1.0549.367.299.58.423.919.587.78.378 1.08.3141 1.585-.0669.51-.382.99-.76 1.468-1.14.2256-.1835.3885-.4328.466-.7131.15.096.307.1901.456.2851.303.2.57.3639.88.5099.435.206.666.0141.82-.3279.345-.752.666-3.085.883-5.39.73-.288 1.44-.506 2.251-.74-.033.2848-.0507.5712-.053.858.021 1.514.723 2.1229 1.792 2.9499.374.292.595.409.936.566.788.36 1.087.285 1.582-.107.87-.684 1.66-1.3599 2.483-2.0479.41.377.919.673 1.382.897.285.157.545.0429.855-.2101 1.119-.915 2.19-2.0869 3.163-3.2769.456.82 1.215 1.432 2.138 1.838 1.054.463 1.179.4309 1.77-.3631.802-1.076 1.517-1.952 2.305-3.003.37-.495.46-.748.313-1.18-.146-.434-.078-.598-.078-1.004.007-.862-.641-.84-1.169-.374-.146.132-.349.114-.47.132-.648.103-1.927 1.956-2.362 2.54-.21.281-.398.484-.445-.032-.164-1.924.253-4.026.56-5.714.217-1.172.056-1.372-.72-1.927-.2665-.1854-.5534-.3398-.855-.46-.862-.363-.837.14-.951.87-.246 1.585-.53 3.344-.577 5.047-.7389.8473-1.5376 1.6403-2.39 2.373-.246.21-.624.537-.606-.122.04-1.442.27-3.686.442-5.161.124-1.037-.905-1.596-1.764-1.885-1.378-.463-.858.346-.912 1.187zm-18.149 7.067c-.06 2.29-.887 4.7161-2.422 6.3701-.26.28-.606.5259-.645-.0611-.15-2.273.492-6.063 1.831-6.726.075.114.214.2961.374.1571.075-.064.15-.1321.214-.1821.498-.392.666-.228.648.442zm-27.792-1.639c-.193.3-.296.171-.535.535-.053.078-.11.078-.31.188-.32.182-.427.5281-.195.8161.156.2.523.527.78.72.399.303.623.124.969-.071 1.403-.795 3.23-1.6681 5.29-2.5441-.1.495-.204.99-.307 1.49-.812 3.953-2.604 9.8201-1.606 14.2701.267 1.193.79 1.4499 1.941 1.4669.264.003.499-.0319.737-.1029.652-.196.556-.378.474-.998-.085-.56-.15-1.111-.189-1.65.04.05.082.1079.129.1679.538.652 1.072.7161 2.094.5271 3.078-.562 6.979-2.247 9.494-3.786 2.258-1.382 3.718-3.723 2.062-6.58-.4013-.7089-.9096-1.3515-1.507-1.905-2.013-1.917-3.49-2.0771-6.465-1.1691-2.027.617-3.195 1.2471-4.371 2.2021.4642-1.8098.8942-3.6281 1.29-5.4541 5.995-2.283 12.845-4.32 17.016-4.795.798-.092 1.18-.021 1.617.467.307.345.51.22.524-.082.04-.787-.289-1.446-.77-2.002-.651-.755-1.756-.794-2.75-.634-4.402.72-10.682 2.608-16.183 4.68-.57-.32-1.243-.38-1.973-.441-.809-.068-.98.313-.83.73.096.257.082.524.05.791-1.6024.6479-3.1802 1.355-4.73 2.12-.425.213-1.532.712-1.746 1.043zm6.996 12.764c-.007-1.628.174-3.1849.456-4.7059.089-.096.189-.2201.31-.3741.527-.659 1.186-1.2289 1.845-1.7449 2.465-1.949 5.664-3.445 8.642-2.437.837.281 1.005.52.858 1.973-.096.94-.448 1.7999-1.293 2.4799-2.618 2.116-7.01 4.029-10.362 4.691-.1548.0278-.3072.0673-.456.118zm31.187 11.206c.983-.651 2.351-2.1229 3.17-2.9779.24-.249.228-.2601.513-.3701.09-.032.2-.1139.292-.1779.218-.157.232-.193.414-.193.228 0 .217-.01.356-.12.0903-.063.1961-.1003.306-.108.178-.02.146-.0241.253-.1101.175-.142.339-.043.331.078-.007.164 0 .207.154.186.285-.036.224.2951.135.5451-.11.302-.135.302-.086.516.072.296-.039.4669-.188.6909-.107.164-.16.2671-.186.4311-.039.257-.085.367-.249.563-.851 1.033-1.838 2.102-2.835 2.975-.4.345-.763.495-1.315.334-1.161-.334-2.554-.944-3.395-1.78-.95-.945-1.314-1.5791-1.514-3.0101-.993 1.218-2.04 2.4401-3.092 3.4051-.203.188-.338.253-.683.092-.955-.445-2.12-1.175-2.216-2.319-.022-.267-.04-.5521-.05-.8581-1.2277 1.2553-2.3303 2.6271-3.292 4.096-.142.221-.249.275-.552.154-1.26-.492-2.315-1.4399-2.853-2.7039-.228-.531-.313-.88-.595-1.204-.898 1.806-1.514 3.758-2.13 5.728-.16.491-.385.8479-.923.5949-.3052-.1487-.5993-.3191-.88-.5099-.374-.245-.805-.456-1.008-.79-.089.156-.231.306-.47.491-1.036.809-1.988 1.596-3.053 2.398-.505.38-.805.445-1.585.067-.3326-.1533-.6428-.3511-.922-.588-1.062-.865-1.757-1.496-1.717-3.056.039-1.731.274-2.957.72-4.467-.421-.071-.83-.2001-1.216-.3851-.2467.6166-.4026 1.2657-.463 1.9271-.035.375-.313.3999-.612.2249-.599-.346-1.02-.6199-1.568-1.1219-.313-.292-.502-.52-.38-1.033.22-.934.843-1.646.829-2.708-.003-.306.09-.37.406-.245.652.26 1.161.5159 1.738.9299.35.252.481.4201.417.8501.606.068 1.144-.0921 1.642-.6161.335-.801.777-1.6349 1.25-2.2799.222-.302.386-.252.635-.131.698.342 1.26.705 1.738 1.115.42.367.438.613.264 1.058-.2407.6193-.643 1.1629-1.165 1.574-.837 1.739-1.578 3.919-1.639 5.85-.014.52.221.3979.535.1629.527-.399 1.03-.8189 1.553-1.2249.51-.395 1.35-1.069 1.88-1.008.122.014.179.007.357-.079.406-.199.83-.263.997.043.424-2.529.827-5.13.937-7.648.022-.474.022-.6231-.075-1.0471-.092-.428.26-.5799.649-.4629.68.206 1.058.374 1.653.798.317.224.53.4519.473.9399-.0583.5266-.1283 1.0517-.21 1.5751.485-.934 1.753-2.48 2.45-3.15.222-.21.222-.238.546-.16.16.04.3.011.442-.128.274-.264.516-.677.709-.994.124-.203.274-.224.548-.082.41.21.794.478 1.14.78.378.335.805.766.527 1.25-.25.442-.563.8559-.95 1.1869-.165.142-.232.1641-.457.0601-.224-.1-.328-.1031-.584.1359-.7257.6804-1.3721 1.4406-1.927 2.2661.452.42.62.719.908 1.46.1.25.228.598.4.844.163.239.195.157.338-.042 1.068-1.5 2.479-2.9 3.833-4.136.317-.289.502-.342.744-.153.06-1.657.16-3.313.21-4.507.007-.174-.007-.4561-.128-.5951-.285-.317.114-.498.413-.452.723.114 1.368.4101 1.949.8761.356.289.498.563.445 1.112-.146 1.478-.264 4.1359-.274 5.5819-.004.466.174.4131.449.1351.9432-.9558 1.8694-1.9283 2.778-2.917.064-1.183.22-2.37.413-3.776.029-.218.04-.3961.029-.5951-.022-.35.107-.5349.47-.4349.77.21 1.254.524 1.856.983.285.218.349.3669.327.6949-.046.78-.167 1.557-.284 2.33-.303 1.977-.613 5.1901.199 7.1381.242.578.527.5419 1.001.2279zm-37.414-3.444c-.52-.41.27-.4629.698-.3499 1.055.275 1.796.71 2.643 1.547 1.254 1.243 1.493 2.5719 1.009 4.4489-.61 2.35-1.66 4.8271-3.474 6.5111-.726.677-.79.7769-1.845.3139-.634-.278-1.14-.606-1.724-1.119-.659-.577-.873-.922-1.036-2.026-.456-3.135.284-8.3039 3.718-9.2699.0054-.0019.0103-.0052.0141-.0096.0038-.0043.0064-.0096.0075-.0153s.0007-.0115-.0012-.017c-.0018-.0055-.0051-.0103-.0094-.0142zm2.07 2.6961c-.136 2.323-1.354 4.685-2.729 6.523-.21.285-.399.484-.442-.029-.228-2.671.325-5.104 2.387-6.797.381-.313.816-.277.784.303zm-8.906 1.8169c-.117-.007-.181-.0999-.231-.2889-.132-.523-.478-.861-.638-1-.17-.147-.385.0919-.474.2199-1.642 2.359-2.13 4.9101-2.148 7.7131-.003.737.264.976.652.213 1.154-2.269 2.116-4.342 2.882-6.7751.01-.036-.007-.082-.043-.082zm53.982-2.4399c.591-.132 1.186-.25 1.785-.356-.481-2.013-1.001-4.122-1.56-6.102.555 1.368 1.271 3.7539 1.816 6.0589 2.02-.342 4.065-.5299 6.116-.5879 0-.862.011-1.8241.036-2.6901.068.863.135 1.825.203 2.687 2.4968-.0494 4.9938.0887 7.47.4131.381-2.544.905-5.3831 1.535-7.7271-.8494-.1371-1.702-.2535-2.557-.3489-.52 2.42-.948 5.0799-1.347 7.5099.257-2.444.492-5.1339.873-7.5629-1.9861-.2161-3.9835-.3099-5.981-.281-.05 1.093-.11 2.418-.107 3.344-.1152-1.1039-.1959-2.2111-.242-3.32-.916.022-1.799.072-2.683.15.221 1.824.4 3.908.57 5.938-.32-2.009-.598-4.075-.833-5.913-.816.078-1.62.182-2.397.313.509 2.597.95 5.45.837 6.83-.374-2.277-.82-4.664-1.311-6.748-1.571.293-3.042.695-4.353 1.226.816 2.251 1.503 4.859 2.13 7.167zm-53.39 13.992c.694.175 1.19.4529 1.752.9759.852.795 1.012 1.642.684 2.84-.413 1.495-1.125 3.0771-2.35 4.1501-.492.43-.535.495-1.251.199-.4244-.1732-.8178-.414-1.165-.713-.449-.367-.591-.587-.702-1.293-.217-1.41-.032-3.473.92-4.777-1.183.164-2.42-.509-3.627-1.596-1.945-1.748-3.299-3.3831-3.263-6.1581.046-3.573 1.168-8.0549 3.904-10.5299l.05-.043c-1.396 1.061-2.632 1.62-4.136.21-.541-.513-1.09-1.179-1.425-1.849-.413-.83-.391-1.706.036-2.525 1.571-3.046 3.755-3.883 7.025-3.983 3.003-.089 5.553-1.2931 7.968-3.0061 1.076-.766 2.088-.6739 2.978-.2029.253-1.646.61-3.256.951-4.749-.377.196-.776.41-1.136.616-1.04.606-1.792 1.044-3.341-.124-.499-.374-1.122-.934-1.436-1.49-.933-1.652.029-3.0731 1.404-4.0501.93-1.033 4.477-2.529 5.813-3.099.37-2.518 3.146-2.56 5.066-2.012 4.958-1.831 10.6-3.644 15.812-4.496 3.292-.538 6.23 1.422 6.099 4.877-.082 2.194-2.49 3.263-4.136 1.777-3.918.45-8.407 1.853-12.175 3.128 2.386-.26 4.135.52 5.888 2.148.83-1.906 2.903-4.396 5.236-4.075 2.487-.477 4.973 1.268 6.056 3.427.128-.168.274-.328.438-.47.054-.563.1-1.133.125-1.696.01-.182.018-.296-.022-.474-.466-2.109 1.457-3.676 3.456-3.067.762.232 1.353.477 2.016.92.018-2.188 1.247-3.132 3.409-2.74.923.167 1.614.331 2.226.702.225-2.273 1.917-2.726 3.887-2.063.751.253 1.45.606 2.048 1.133.392-2.583 2.116-3.213 4.585-1.899 2.3 1.226 2.632 2.544 2.187 4.977 2.244-1.055 4.107.58 3.993 2.963.0853-.0393.1765-.0647.27-.075-.153-3.013 1.034-6.43 3.82-7.85 2.878-1.575 6.9278-.467 8.5558 2.4 1.724 3.035.82 6.4871-.94 9.2701-1.173 1.848-1.226 2.881-.474 4.876 1.524.52 3.223 1.1649 4.346 1.6989 2.144 1.022 2.664 3.1311 1.68 5.1871.286.897.136 1.78-.384 2.568-.192 1.165-.972 2.105-2.14 2.38-.565 1.3511-1.101 2.7144-1.607 4.0889.456.88.46 1.838.01 2.714-.092 1.154-.769 2.0631-1.848 2.5121-.72 2.725-1.368 3.8649-4.4568 3.8969-.805.01-1.713-.0359-2.49-.2389-1.2162.266-2.476.2612-3.69-.014-.998.235-3.199.317-4.2.146-.987.231-3.07.164-4.118-.05-.698.128-1.906.007-2.625-.118-2.54-.441-3.31-1.7631-3.897-4.1891-1.02-.502-1.621-1.46-1.692-2.59-.7647.8894-1.5896 1.725-2.469 2.501-.972.848-2.127 1.169-3.384.805-1.884-.541-3.566-1.4099-4.873-2.8919-.342.36-.68.698-1.012 1.004-.356.328-.73.538-1.111.649.37.146.51.377.488.9-.064 1.472-.492 2.982-.577 4.343-.04.567.181.4129.345.2459.382-.392 1.543-1.6999 2.102-1.6349 1.215.139 1.293 1.019.484 1.681-.634.52-1.218 1.0259-1.87 1.5429-.31.245-.498.2921-.99.0671-.214-.1-.35-.1701-.584-.3521-.666-.52-1.108-.898-1.119-1.846-.003-.131.011-.3159.032-.5369-.51.15-.95.2849-1.407.4659-.135 1.44-.335 2.8961-.552 3.3671-.096.213-.239.334-.513.206-.1899-.0939-.373-.2008-.548-.32-.114-.075-.24-.147-.35-.221-.295.38-.59.755-.904 1.179-.374.498-.45.516-1.112.224-.573-.25-1.047-.634-1.332-1.147-.61.745-1.279 1.479-1.977 2.049-.196.16-.356.231-.534.131-.357-.174-.755-.4131-1.03-.7301-.035.26-.139.4991-.338.6561-.3.238-.602.477-.92.715-.32.24-.505.282-.997.043-.2071-.0975-.401-.2208-.577-.3671-.281-.231-.523-.434-.705-.666-.36.666-.809 1.283-1.364 1.778-.467.416-.506.48-1.165.174-.3925-.1826-.7534-.4267-1.069-.723-.043-.04-.085-.078-.125-.117-.395.57-.773 1.125-1.193 1.702-.235.32-.403.4131-.937.3281-.2254-.0336-.4455-.0957-.655-.185-.617-.253-1.073-.463-1.368-.983-.31.698-.663 1.385-1.037 2.051-.078.143-.1.207-.302.193-.353-.029-.98-.25-1.582-.563-.588.488-1.136.9619-1.75 1.4429-.31.249-.494.2921-.986.0671-.2112-.09-.409-.2084-.588-.3521-.666-.517-1.104-.8979-1.118-1.8419.0006-.1798.0113-.3594.032-.538-.506.146-.951.2849-1.404.4629-.139 1.44-.338 2.9001-.552 3.3701-.1.21-.242.331-.513.203-.1909-.0933-.3753-.1992-.552-.3171-.345-.228-.773-.4059-.695-.8699.114-.68.229-1.3171.335-1.9481l-.292-.84c-.0422-.121-.0394-.2531.0077-.3723.0472-.1191.1357-.2173.2493-.2766.096-.05.192-.096.281-.142.075-.588.128-1.1861.157-1.8201.014-.296.014-.3919-.046-.6559-.057-.267.163-.3631.406-.2881.424.128.659.2311 1.03.4951.191.135.366.2919.362.5659 0 .232-.01.5421-.028.8941.292-.107.648-.224.809-.203.231.032.324.0179.48-.0321.0668-.0157.1362-.0181.204-.007.089-.613.174-1.2219.22-1.6699.0103-.163.0079-.3265-.007-.4891-.605.186-1.232-.0349-2.49-.5869-.972-.428-1.806-1.008-2.575-1.735-.374.837-.983 2.198-1.543 2.914-.089.135-.178.26-.27.377zm35.867-9.397c-.94-.164-1.863-.744-2.625-1.4-1.093 1.468-1.849 3.181-4.121 2.29-.2235-.0874-.4424-.1859-.656-.2951-.0505.2386-.1221.4722-.214.6981-.163.41-.263.7909-.306 1.2469-.021.235-.196.2501-.381.1421-.3551-.1928-.6844-.4297-.98-.7051-.117-.103-.203-.196-.242-.32-.1737.4331-.4344.8259-.766 1.154.0331.008.0656.0187.097.0321.537.178 1.178.5269 1.104 1.1749-.107.923-.253 2.3231-.278 3.2281-.01.41.228.206.381.075.5317-.4585 1.0306-.9538 1.493-1.4821.028-1.066.206-2.1659.36-3.1569.07-.455.056-.769.594-.544.2.085.37.17.535.288.484.35.584.4739.448 1.2039-.192 1.054-.452 2.3691-.349 3.5731.029.32.146.1959.278.0179.27-.364 1.072-1.521 1.478-1.585.072-.011.186-.0039.278-.0719l.054-.3101-.292-.8439c-.0421-.1204-.0393-.2518.0077-.3703.047-.1184.1352-.216.2483-.2747.096-.05.189-.1.282-.146.074-.584.128-1.182.156-1.82.015-.296.011-.388-.046-.652-.06-.27.16-.363.403-.292.427.132.662.235 1.033.499.188.135.367.2879.363.5659 0 .232-.01.538-.029.89.289-.106.649-.2239.81-.1989.23.029.323.018.48-.032.0663-.0175.1356-.0199.203-.007.085-.616.175-1.222.22-1.674.033-.339-.046-.677-.021-.898zm-10.782 3.188c-.727.442-1.639.5099-2.608.0539-.281-.132-.548-.292-.816-.453-.602.481-1.2.959-1.81 1.425.0135.0076.0257.0174.036.0291.727-.3 1.543.085 2.063.62.399.41.627.8329.709 1.3069.185.1.37.2201.534.3601.232.192.296.278.164.709-.185.598-.549 1.353-.56 1.97-.006.313.143.2349.336.0879.33-.249.74-.6869 1.068-.9429.339-.264.52-.278.624-.214-.004-1.436.2-3.2851.281-4.5601.004-.131-.003-.2621-.021-.3919zm-6.793 2.002c-.902.328-1.796.1999-2.825-.3031-1.275-.616-2.79-1.9229-3.402-3.1839-.752 2.009-1.849 3.9429-3.43 5.4139-.321.3-.592.5491-.83.7451.605.146.826.342.797.994-.06 1.475-.488 2.9809-.577 4.3419-.039.567.182.417.346.25.196-.2.588-.635 1.004-1.005-.0669-.1015-.1093-.2172-.124-.3379-.036-.442.477-.5311.904-.5601.656-.042.912.1541.959.4631l.028.0109.171.1781c.0168-.0128.0314-.0284.043-.0461.859-1.23 1.293-2.1269 1.738-3.3769-.025-1.019.086-1.927.42-2.886.079-.22.186-.2171.357-.1881.477.075.883.192 1.24.352.32.14.374.2851.349.5811-.054.677-.346 1.575-.531 2.209-.11.68.039 1.5499.267 2.3859.082.317.203.2.346 0 .245-.331.47-.6769.708-1.0109.236-.332.617-.884.944-.944.0609-.0068.1176-.0347.16-.079-.05-1.31.19-2.928.938-4.004zm52.702-33.7801c.752.648 1.51.46 2.138-.242-.478 1.108-1.814 1.168-2.138.242zm-1.695 6.5191c.659-1.557.577-2.7251.38-4.3571.343 1.083.703 3.1701-.38 4.3571zm5.9738-5.6071c.634-1.667.872-2.796.406-4.798.794 1.524.38 3.73-.406 4.798zm-2.8358-4.77c.94.15 1.133 1.443 1.008 2.216-.124.77-.709 1.938-1.65 1.788-.94-.153-1.128-1.443-1.004-2.216.122-.773.71-1.938 1.646-1.788zm-.766 3.576c-.1558-.2863-.2285-.6105-.21-.936.06.246.399 1.054.663.983-.389-.499-.424-1.233-.3-1.828.1-.488.35-1.061.766-1.357-.31-.135-.833.663-.94.873.107-.452.306-.741.484-.937-.555.132-.901 1.001-.98 1.471-.078.488-.014 1.468.517 1.732zm2.2228 10.192c-.292-.89-.7018-2.1269-.5908-3.1419.11 1.176.5338 2.1449.8898 3.235l.1.0349c.103.032.196.0641.278.0961-1.2108-3.152-1.5668-4.8941.474-8.1181.716-1.13 1.307-2.151 1.368-3.594.053-1.318-.196-2.736-1.35-3.566-.296-.214-.606-.303-.945-.417 1.087.859 1.529 2.209 1.46 3.855-.06 1.563-.548 2.3-1.36 3.587-1.9018 3-1.6918 5.0331-.63 7.9361.103.032.203.0639.306.0929zm-1.0968-.3169c-.98-2.953-.709-5.2441 1.0298-7.9901.715-1.13 1.21-1.856 1.267-3.299.029-.6429-.057-1.2858-.256-1.898-.32-.973-.898-1.635-1.5848-1.927-.0096-.0041-.0199-.0061-.0302-.006-.0104.0001-.0207.0024-.0301.0068-.0094.0043-.0178.0106-.0247.0184-.0068.0078-.012.0169-.015.0268l-.246.759.072-.841c.007-.086-.125-.114-.154-.029l-.43 1.315.113-1.343c.0009-.0098-.0002-.0197-.0032-.029-.0031-.0094-.0081-.018-.0147-.0254-.0065-.0073-.0146-.0132-.0236-.0173-.0089-.004-.0187-.0062-.0285-.0063-.738-.004-1.522.374-2.217 1.193-.976 1.154-1.321 3.003-1.093 4.691.502 3.701 1.004 5.3611-1.54 8.2721.25.05.5.107.742.167.402.1.78.26 1.054.58.374-.192.83-.241 1.447-.102.659.15 1.314.31 1.966.484zm-7.035 15.588c-2.127-.224-4.325-.1741-6.32.0099 1.357-.498 4.478-.4479 6.32-.0099zm-.959-.8231c-1.8161-.1198-3.6389-.0897-5.45.09 1.147-.467 3.438-.407 5.45-.09zm.83-10.2199c-2.208-.249-4.47-.253-6.316-.07.788-.542 4.703-.343 6.316.07zm-.944-.826c-1.613-.167-3.117-.178-4.56-.036.984-.474 3.46-.306 4.56.036zm4.802 10.134c1.806.243 3.598.5739 5.3678.9829 1.13-3.352 2.259-6.087 2.711-7.092-.421-.1449-.845-.2802-1.272-.406-.801 2.066-1.56 4.3891-2.269 6.4871.503-2.109 1.18-4.535 1.999-6.565-.83-.242-1.675-.46-2.5758-.66-.456 1.422-.9 3.0859-1.296 4.5139.263-1.457.541-3.1529.887-4.5949-.6695-.1417-1.342-.2687-2.017-.381-.587 2.415-1.111 5.25-1.535 7.715zm5.5468 1.026c.228.054.455.11.683.168.83-2.248 1.767-4.806 2.79-6.968-.248-.0927-.498-.1828-.748-.27-.987 2.226-1.906 4.798-2.725 7.07zm-9.6078-7.69c-.2233 1.8112-.3933 3.6287-.51 5.45-.238-1.375.004-4.254.51-5.45zm8.5498 10.526c-.26.83-.4848 1.799-.7158 2.643.185-.88.3378-1.87.5548-2.679-1.5918-.3617-3.2003-.6457-4.8198-.8511-.1408 1.0018-.2608 2.0063-.36 3.013.043-.958.086-2.0699.179-3.0379-2.2521-.2785-4.5215-.3918-6.79-.339.129 1.293.317 2.7109.467 3.9689.043.363.32.484.641.498.741.032 1.4.0111 2.084-.0639.399-.039.83-.075.898-.584l.299-2.1621.256 2.137c.032.264.214.4701.474.5381.734.182 1.724.171 2.487 0 .252-.057.413-.2531.484-.5021.314-1.154.363-1.4679.705-2.5299-.131 1.094-.16 1.4429-.15 2.5509.008.37.268.51.588.563.599.1 1.23.1 1.874.075.6448-.025.6878-.078.9298-.93.189-.673.374-1.4779.588-2.1479l-.674-.16zm-1.6318-16.24c-.174.584-.324 1.318-.492 1.923.691.132 1.368.278 2.0338.431.179-.612.35-1.364.546-1.977.023-.0704.031-.1446.025-.2182-.006-.0737-.027-.1454-.061-.2109-.034-.0656-.081-.1237-.138-.1711s-.122-.083-.193-.1049c-1.1189-.3527-2.253-.6556-3.3988-.9079-.484-.11-.99-.057-1.15.513-.193.676-.353 1.4919-.524 2.1719.926.132 1.845.2821 2.746.4531.2-.606.392-1.332.606-1.902zm-16.123 17.184c-.1-.485-.224-1.108-.327-1.593-.567.097-1.126.2069-1.689.3319.16.623.335 1.389.488 2.02.15.62.353 1.0971 1.073 1.2601.146.033.349.04.327-.181l-.089-.844.278.915c.04.132.146.221.285.235.242.025.492.0399.745.0539.31.018.62-.178.651-.5.104-1.06-.032-2.076-.167-3.301.306 1.1.566 2.2261.716 3.3801.043.328.281.4629.584.4879.656.057 1.5.118 2.155.079.1459-.0087.2825-.0744.3805-.1829.098-.1084.1495-.251.1435-.397-.06-1.265-.107-2.6801-.135-3.9481-1.874.064-3.744.2501-5.597.5631.075.527.15 1.162.178 1.621zm1.87-16.133c-.046-.599-.096-1.3501-.142-1.9701.11.616.25 1.357.35 1.955 1.0239-.0751 2.0502-.1142 3.077-.1169-.018-.802-.046-1.714-.05-2.426-.003-.513-.48-.58-.88-.567-1.81.072-3.416.2-5.18.588-.0622.0137-.121.0398-.173.0765s-.0962.0834-.13.1374-.0565.1142-.0668.177-.008.1271.0068.1891c.14.603.268 1.476.435 2.277.9137-.1406 1.8313-.2474 2.753-.32zm19.8528.972c-.16.385-.289.9299-.428 1.3219.808.2525 1.607.534 2.394.844.153-.303.292-.7369.453-1.0369.306-.577.48-1.065-.278-1.4l-.656-.288c-.058-.025-.124-.0278-.184-.0082-.06.0197-.111.0606-.144.1151l-.666 1.1221.342-1.2611c.017-.0606.012-.1255-.016-.1821-.028-.0567-.075-.1011-.134-.1248-.765-.3247-1.544-.6133-2.336-.865-.392-.118-.93-.292-1.133.22-.242.624-.46 1.386-.687 2.013.997.242 1.959.51 2.878.798.2-.388.385-.905.595-1.268zm-9.5468-.652c.128-.67.246-1.478.396-2.148.103-.466-.196-.8331-.642-.9401-.456-.11-.958-.2139-1.474-.2959-.063-.0108-.1277.0021-.1816.0363s-.0933.0871-.1104.1486l-.24.8411.026-.87c.007-.316-.51-.384-.577-.07l-.417 1.902.028-1.938c.0002-.0654-.0242-.1284-.0683-.1765-.0441-.0482-.1047-.078-.1697-.0835-.5201-.0446-1.0421-.0637-1.564-.0571-.588.01-1.311.117-1.382.844-.064.684-.107 1.5751-.16 2.3551 2.169.014 4.377.174 6.536.452zm-13.625.0959c-.175-.662-.37-1.4599-.552-2.1159-.0416-.1557-.1414-.2893-.2787-.3735-.1374-.0841-.3018-.1122-.4593-.0785-1.247.264-2.365.545-3.587.965-.972.335-.652 1.222-.331 1.931.128.289.274.712.395 1.001 1.464-.588 3.089-1.0261 4.813-1.3291zm21.3768 13.6041c-2.18-.573-4.2428-1.0251-6.4768-1.3281 1.846-.096 4.8128.591 6.6468 1.068.225.057.218-.47-.292-.605-7.5618-1.988-15.8298-2.5049-22.9758-.5419-.484.132-.538.592-.303.531 1.169-.303 2.996-.7021 4.328-.5301-1.4301.1677-2.8456.4415-4.235.819-.196.053-.118.3741.082.3241 1.133-.27 2.187-.467 3.437-.417-1.1153.1634-2.2219.3809-3.316.652-.317.078-.06.5449.37.4419 7.264-1.728 14.987-1.2219 22.1788.6371.377.096.687-.2881.449-.3521-1.571-.41-3.1528-.791-4.7518-1.07 1.784-.045 3.0598.36 4.7618.749.21.05.303-.3239.097-.3779zm3.857-9.496c-1.816-.752-3.637-1.39-5.532-1.874 2.01.189 3.954.95 5.803 1.653.224.085.203-.346-.178-.506-8.3748-3.545-22.3998-5.0261-30.4248-1.3081-.491.228-.288.6131-.05.5061 1.482-.64 3.77-1.182 5.586-1.264-1.917.31-3.744.844-5.518 1.642-.175.078-.021.42.153.346 1.2-.5 2.89-.9271 4.218-.9941-1.3978.3043-2.7619.7468-4.072 1.3211-.31.14.068.588.485.403 7.463-3.327 21.02-2.2271 28.9708 1.0149.338.139.66-.1499.438-.2419-2.632-1.097-6.073-2.1021-8.8378-2.5151 3.0238.3179 5.9908 1.0442 8.8198 2.1591.221.085.349-.257.139-.342zm-64.9998-6.224c-.042.267-.081.531-.117.798 2.358-.78 5.083-2.044 7.007-3.598 1.493-1.207-1.133-.7511-1.674-.5981-1.639.463-4.062 1.9841-5.216 3.3981zm6.039 24.0379c-.036 1.436-.556 2.96-1.521 4-.164.175-.382.3281-.403-.0389-.096-1.428.306-3.808 1.147-4.224.05.07.136.185.235.1.047-.043.096-.0831.136-.1151.313-.245.416-.146.406.278zm-20.155 5.4611c-.093 1.482-.916 2.989-1.845 4.16-.146.182-.275.3099-.303-.0171-.153-1.703.22-3.2559 1.617-4.3319.256-.203.553-.178.531.189zm31.219-50.2301c2.337-1.515 5.77-.435 4.89 1.324-.23.456-.761.41-1.15.079-1.068-.909-1.977-1.282-3.74-1.403zm1.126-1.048c2.125-1.14 5.204-2.287 7.74-1.902 1.272.196 2.127 2.6-.142 2.037-2.547-.627-5.197-.755-7.598-.135zm3.775-1.243c1.068-.282 3.238-.58 4.207-.136.292.136.455.692-.004.542-1.424-.463-2.785-.485-4.203-.406zm-.46 2.483c-.288-.292-1.222-.734-2.223-.62 1.183.167 1.86.666 2.084 1.329.189.548.734-.099.139-.709zm-46.45 21.2951c-1.685-.538-5.333-.193-4.157 1.959-.948.242-1.753.6589-2.134 1.4739-.55604 1.19-.043 2.227.923 2.198-.032.606-.022 1.3971.213 1.9921.588 1.489 2.896.894 2.444-.5381-.11-.36-.35-.7269-.588-1.0189 1.457.164 1.286-1.6101.873-2.4151 1.257.634 2.216.007 2.878-.958.641-.934 1.621-2.202 2.921-2.049 1.72.2 3.217.357 4.955.032.235-.042.193-.3099.14-.4769-.047-.139-.133-.224-.307-.064-.616.563-3.388.527-4.741.3-.585-.1-1.083-.275-1.725-.264-1.71.02-2.71.398-2.835 2.222-.046-.712.071-1.1601.196-1.4671.007-.018-.014-.0399-.032-.0289-2.027 1.09-3.516 3.2199-3.242 5.1329-.68-2.685 2.024-5.4179 4.218-6.0299zm-3.114 5.3319c-.057-.434-.16-.8259-.338-1.1749.303-.086.392.7159.338 1.1749zm.738-4.5909c-.4198.0538-.8199.21-1.165.455.253-.345.94-.729 1.165-.455zm-2.426 2.604c-.356.313-.58.737-.695 1.278-.003-.52.285-1.417.695-1.278zm62.388 17.5c-.1283.3054-.2018.631-.217.962-.25-.057 0-.66.217-.962zm-2.304 2.954c.31.12.652.1669.997.1279-.313.146-.944.1531-.997-.1279zm2.721-.895c.37-.081.695-.295.987-.634-.2.37-.752.891-.987.634z" fill="url(#a)"/></g></svg>