<svg width="100" height="60" fill="none" xmlns="http://www.w3.org/2000/svg"><path fill-rule="evenodd" clip-rule="evenodd" d="M7.424 30.023c1.368-1.934 2.11-2.365 4.941-2.554 4.175-.278 5.87-1.033 9.212-3.23 1.008-.663 1.774-.304 2.579.298a.205.205 0 0 0 .32-.114c.649-2.547 1.12-5.225 1.7-7.797a.205.205 0 0 0-.3-.225c-1.008.567-1.987 1.158-3.035 1.635-1.225.556-1.581.128-2.3-.723-1.052-1.25-1.123-1.745-.275-2.568 1.731-1.681 4.56-2.707 6.783-3.683a.194.194 0 0 0 .12-.2c-.167-2.465 1.728-1.906 4.019-1.55a.19.19 0 0 0 .1-.007c4.98-1.788 10.497-3.654 15.773-4.463 2.946-.449 4.948.627 4.755 3.747-.096 1.614-1.011 1.603-1.93.905-.641-.491-2.893-.021-4.293.278-3.96.848-6.946 1.731-10.708 3.174a.199.199 0 0 0-.128.157l-.228 1.407a.203.203 0 0 0 .267.224c3.153-1.069 5.743.303 8.108 2.312.107.093.27.05.32-.082 2.28-5.945 7.755-5.87 10.228-.794a.202.202 0 0 0 .313.067c.534-.448.89-.716 1.528-1.022a.193.193 0 0 0 .114-.164c.1-1.05.242-2.077.157-3.053-.164-1.856 1.022-1.966 2.315-1.567 1.033.32 1.931.844 2.822 1.428.146.097.31.008.313-.163.018-.574.036-1.133.075-1.707.11-1.45 1.05-1.628 2.148-1.446.997.167 2.041.613 3.01.983.128.05.267-.039.278-.178.139-2.116.36-2.721 2.212-2.255 1.062.267 2.198.966 3.17 1.543.121.07.342.021.367-.118.36-1.906.513-3.274 2.334-2.64 3.263 1.137 2.767 3.174 2.368 5.821-.025.171.164.303.307.207 2.782-1.853 4.22-.585 4.139 2.144a.203.203 0 0 0 .242.207l2.134-.396a.209.209 0 0 0 .167-.192c.129-2.914.068-4.431 1.913-6.148 2.804-2.608 6.808-1.6 8.097 2.19.649 1.903-.028 3.908-.869 5.622-1.845 3.758-2.255 3.971-.602 7.662a.201.201 0 0 0 .132.114l3.555 1.19c2.65.887 2.362 3.102 1.703 5.18-.4 1.257-.691 1.844-1.447 2.728-1.036 1.21-1.916 3.687-2.483 5.275a.194.194 0 0 0-.01.11c.413 2.106.313 3.3-1.543 4.436a.204.204 0 0 0-.089.107c-1.182 3.405-1.617 3.12-5.022 3.12-4.916 0-9.679.125-14.58-.17-2.034-.122-2.394-1.22-3.043-2.911-1.674-1.877-1.927-2.408-2.28-4.617-.028-.174-.252-.239-.36-.096-4.174 5.55-5.677 6.494-11.27 1.275a.202.202 0 0 0-.292.015c-2.544 2.87-2.757 2.621-5.835.38a.202.202 0 0 0-.292.054c-1.91 2.96-2.583 3.726-6.035 1.332a.201.201 0 0 0-.295.075c-1.535 3.007-1.824 5.005-4.948 3.02a.198.198 0 0 0-.239.015c-2.96 2.401-4.135 3.573-6.558 1.46-1.268-1.107-1.955-2.18-2.696-3.576a.205.205 0 0 0-.37.022c-1.094 2.796-1.771 4.235-3.599 6.415-2.165 2.586-4.157.499-6.611-1.856a.203.203 0 0 0-.335.09c-.51 1.67-1.161 3.166-1.97 4.217-1.407 1.827-2.66 1.193-4 .064-2.971-2.504-3.28-3.719-2.953-6.982.342-3.388 1.296-6.116 3.505-8.524 1.336-1.46.06-2.455-1.225-1.753-.42.228-.695.456-1.02.663-1.189.744-1.734.107-2.468-.723-1.14-1.283-1.05-1.789-.107-3.12zM50.741 2.46c.947-.086 2.38.22 2.636 1.118.078.271.007.52-.146.699-.225.263-.567.167-.663-.157-.246-.802-.88-1.097-1.856-1.361-.299-.078-.267-.27.029-.3zM52.839.77c1.386-.434 3.27-.844 4.688-.424.441.129.623.35.701.67.196.794-.288.702-.805.545-1.642-.499-2.892-.556-4.488-.385-.926.1-.641-.231-.096-.406z" fill="#FEFEFE"/><path fill-rule="evenodd" clip-rule="evenodd" d="M60.081 48.137c1.119.962 3.445 1.835 3.452.007.759.196 1.489.214 2.073-.213.852-.62.894-1.554.203-1.906.26-.413.56-.976.624-1.49.163-1.278-1.696-1.752-1.931-.57-.06.3-.036.65.018.948-.966-.68-1.532.638-1.553 1.365-1.525-2.17-5.728 1.367-6.972 2.483-.238.213.118.737.239.416.032-.082.139-.256.25-.367.662-.652 1.253-1.24 2.058-1.752 1.158.648 2.184.922 3.028-.392-.242.516-.499.79-.705.958-.01.01-.004.032.01.032 1.853.018 3.73-.905 4.279-2.358-.531 2.03-3.2 2.928-4.994 2.672-.097-.015-.15.107-.079.167zM44.935 27.918c-1.639-.638-3.38.435-2.854 1.446.15.285.599.2.723-.096.36-.858.977-1.29 2.13-1.35zm38.343-10.9c.267.392.282 1.05-.007 1.656a.506.506 0 0 0-.114-.146c-.142.381-.267.613-.652.884a.27.27 0 0 0-.057-.136 1.885 1.885 0 0 1-.513.47.196.196 0 0 0-.11-.142c-.203.324-.403.424-.698.513a.216.216 0 0 0-.064-.153 4.266 4.266 0 0 1-.841.085.257.257 0 0 0-.032-.181c-.303.032-.61-.011-.909-.122.314-.203.474-.37.642-.726a.26.26 0 0 0-.154-.125c.179-.278.378-.477.62-.698a.301.301 0 0 0-.21-.1c.153-.32.214-.388.456-.634a.386.386 0 0 0-.267-.132c.22-.2.442-.37.698-.477a1.156 1.156 0 0 1-.004-.314c.232-.014.303-.053.439-.17.249-.222.766-.335 1.147-.225.38.107.367.246.295.584.203-.442.178-1.118.06-1.546-.024-.092-.045-.128-.081-.153-.078-.053-.085-.103-.021-.143.053-.035.174-.085.196-.003.206.759.213 1.553-.289 2.18-.787.98-1.76 1.895-2.754 2.554a8.169 8.169 0 0 0 1.415-.947c.007-.004.017.003.014.014a4.84 4.84 0 0 1-.431.513c.26-.164.53-.492.69-.702.097-.128.136-.178.254-.292a9.91 9.91 0 0 0 .773-.823c.003-.007.014-.003.014.004.01.224.014.43-.032.659.1-.154.128-.495.135-.713 0-.06.022-.114.057-.16l.129-.16a.129.129 0 0 1 .206.007zm-1.777 2.486c.146-.26.231-.516.238-.744.157.135.068.488-.238.744zm.855-.734c.074-.25.1-.488.057-.687.163.089.153.41-.057.687zm-.606-1.88c.296-.086.577-.111.809-.061-.1-.196-.478-.185-.809.06zm-.324.758c.278-.135.552-.206.79-.196-.131-.174-.505-.103-.79.196zm-.766.634c.303-.064.584-.067.812-.003-.085-.2-.463-.221-.812.003zm-.399.684c.239-.11.47-.167.67-.157-.107-.146-.424-.092-.67.157zm-19.65 4.29a4.1 4.1 0 0 0 1.508.316c-.73.35-2.074.556-1.899-.114a.294.294 0 0 1 .392-.203zm.229-1.372c-.16.922 1.756 1.157 2.522 1.207-.855-.285-1.543-.72-2.102-1.346-.135-.15-.384-.06-.42.139zm1.086.88c-.48-.118-.894-.385-.994-.684-.028-.09.093-.193.143-.064.132.341.467.57.851.748zm2.857.726c-1.592.178-3.598.88-4.182 2.469-.399 1.08.83 1.225 1.24.41.787-1.554 1.471-2.177 2.942-2.879zm-2.027.666c-1.061.456-1.816 1.297-2.016 1.96-.064.206.232.388.35.089.355-.905.85-1.493 1.666-2.049zm.382 1.707c-.959 1.92-1.906 4.688-1.5 6.935.203 1.13 2.365 1.831 1.81-.178-.624-2.251-.745-4.688-.31-6.757zm-1.012 3.39c-.225.96-.438 2.897-.014 3.748.128.257.63.32.47-.078-.506-1.29-.492-2.408-.456-3.67zm-27.707 1.39c.951.403 1.414.73 2.023 1.39.21.23.602.188.724-.097.26-.602-.26-1.906-2.747-1.293zm2.533.916c.153-.236-.221-.581-.45-.688a2.267 2.267 0 0 0-.644-.174c.324.174.766.395.93.801.036.082.093.171.164.06zm-11.649 1.845c-1.585-2.29-5.168-2.6-5.022-.638a.666.666 0 0 0 1.03.51c1.235-.802 2.247-.624 3.992.128zm-4.684-.823c-.157-.264.232-.634.485-.741.377-.164.865-.2 1.268-.135-.684-.015-1.144.213-1.45.883-.04.09-.232.118-.303-.007zm4.068-.492c-.385-.537-.98-1-1.557-1.172-.188-.057-.224-.32-.078-.456.37-.352 1.372.271 1.635 1.628zm20.248-4.395c-.798-.367-1.497-.414-1.892-.335-.385.075-.541-.296-.181-.481.54-.278 1.556.242 2.073.816zM9.576 32.976c-.306.267-.523.275-.82-.007-.366-.345-.758-.805-.964-1.218-.075-.153-.097-.285.024-.517 1.176-2.276 2.669-2.707 5.112-2.782 3.413-.103 6.348-1.389 9.194-3.416.506-.36 1.001.168 1.29.524.353.442.69.983.196 1.471-2.593 2.561-5.112 3.245-8.525 3.53-.064.004-.082.093-.021.121 3.534 1.728 4.47 4.225 3.9 7.855-.47 2.992-2.497 8.631-4.028 11.043-.852 1.332-1.421 1.093-2.768-.121-1.39-1.25-2.561-2.383-2.533-4.482.04-3.056 1.015-6.953 3.174-8.912.66-.595 1.008-.748 1.678-.413.78.395 1.67.887 2.216 1.52 1.1-5.186-3.2-7.633-7.125-4.196zm58.256-23.67c-.117 1.909-.413 4.623-.445 6.846-.958.46-2.308 1.97-2.814 2.486-.26.271-.613.513-.552-.391.139-2.18.823-4.596.923-6.954.053-1.268-.481-1.457-1.999-1.735-1.204-.217-.645.795-.748 1.831-.071.72-.214 1.693-.353 2.676a.782.782 0 0 0-.324.01c-.25.082-.399.104-.773.05-.253-.032-.826.157-1.293.324.029-.563.047-1.054.05-1.428 0-.438-.278-.688-.58-.905-.596-.42-.973-.588-1.653-.798-.389-.117-.741.036-.649.467.096.42.096.573.075 1.047a35.02 35.02 0 0 1-.25 2.91c-.149.075-.299.154-.452.232a.854.854 0 0 0-.41 1.037l.467 1.35c-.092.552-.192 1.115-.292 1.688-.157-.157-.441-.196-1.061.285-.52.406-1.172 1.108-1.7 1.507-.31.232-.544.353-.534-.143.018-.983.599-2.187.89-3.138.21-.687.108-.82-.26-1.13a5.217 5.217 0 0 0-.847-.573c-.132-.755-.499-1.425-1.133-2.08-.826-.851-2.123-1.468-3.28-.99-.133-.129-.442-.16-.67-.064-3.039 1.271-3.652 6.073-3.274 9.04.139 1.108.346 1.461.994 2.049.573.523 1.072.862 1.703 1.15 1.047.485 1.11.389 1.852-.274.883-.794 1.6-1.77 2.173-2.832.288.367.673.691 1.122 1.055.367.299.58.423.919.587.78.378 1.08.314 1.585-.067.51-.382.99-.76 1.468-1.14a1.4 1.4 0 0 0 .466-.713c.15.096.307.19.456.285.303.2.57.364.88.51.435.206.666.014.82-.328.345-.752.666-3.085.883-5.39.73-.288 1.44-.506 2.251-.74a8.02 8.02 0 0 0-.053.858c.021 1.514.723 2.123 1.792 2.95.374.292.595.409.936.566.788.36 1.087.285 1.582-.107.87-.684 1.66-1.36 2.483-2.048.41.377.919.673 1.382.897.285.157.545.043.855-.21 1.119-.915 2.19-2.087 3.163-3.277.456.82 1.215 1.432 2.138 1.838 1.054.463 1.179.431 1.77-.363.802-1.076 1.517-1.952 2.305-3.003.37-.495.46-.748.313-1.18-.146-.434-.078-.598-.078-1.004.007-.862-.641-.84-1.169-.374-.146.132-.349.114-.47.132-.648.103-1.927 1.956-2.362 2.54-.21.281-.398.484-.445-.032-.164-1.924.253-4.026.56-5.714.217-1.172.056-1.372-.72-1.927a4.252 4.252 0 0 0-.855-.46c-.862-.363-.837.14-.951.87-.246 1.585-.53 3.344-.577 5.047a23.475 23.475 0 0 1-2.39 2.373c-.246.21-.624.537-.606-.122.04-1.442.27-3.686.442-5.161.124-1.037-.905-1.596-1.764-1.885-1.378-.463-.858.346-.912 1.187zm-18.149 7.067c-.06 2.29-.887 4.716-2.422 6.37-.26.28-.606.526-.645-.061-.15-2.273.492-6.063 1.831-6.726.075.114.214.296.374.157.075-.064.15-.132.214-.182.498-.392.666-.228.648.442zm-27.792-1.639c-.193.3-.296.171-.535.535-.053.078-.11.078-.31.188-.32.182-.427.528-.195.816.156.2.523.527.78.72.399.303.623.124.969-.071 1.403-.795 3.23-1.668 5.29-2.544-.1.495-.204.99-.307 1.49-.812 3.953-2.604 9.82-1.606 14.27.267 1.193.79 1.45 1.941 1.467.264.003.499-.032.737-.103.652-.196.556-.378.474-.998-.085-.56-.15-1.111-.189-1.65.04.05.082.108.129.168.538.652 1.072.716 2.094.527 3.078-.562 6.979-2.247 9.494-3.786 2.258-1.382 3.718-3.723 2.062-6.58a7.907 7.907 0 0 0-1.507-1.905c-2.013-1.917-3.49-2.077-6.465-1.169-2.027.617-3.195 1.247-4.371 2.202a148.795 148.795 0 0 0 1.29-5.454c5.995-2.283 12.845-4.32 17.016-4.795.798-.092 1.18-.021 1.617.467.307.345.51.22.524-.082.04-.787-.289-1.446-.77-2.002-.651-.755-1.756-.794-2.75-.634-4.402.72-10.682 2.608-16.183 4.68-.57-.32-1.243-.38-1.973-.441-.809-.068-.98.313-.83.73.096.257.082.524.05.791a69.756 69.756 0 0 0-4.73 2.12c-.425.213-1.532.712-1.746 1.043zm6.996 12.764c-.007-1.628.174-3.185.456-4.706.089-.096.189-.22.31-.374.527-.659 1.186-1.229 1.845-1.745 2.465-1.949 5.664-3.445 8.642-2.437.837.281 1.005.52.858 1.973-.096.94-.448 1.8-1.293 2.48-2.618 2.116-7.01 4.029-10.362 4.691a3.118 3.118 0 0 0-.456.118zm31.187 11.206c.983-.651 2.351-2.123 3.17-2.978.24-.249.228-.26.513-.37.09-.032.2-.114.292-.178.218-.157.232-.193.414-.193.228 0 .217-.01.356-.12a.61.61 0 0 1 .306-.108c.178-.02.146-.024.253-.11.175-.142.339-.043.331.078-.007.164 0 .207.154.186.285-.036.224.295.135.545-.11.302-.135.302-.086.516.072.296-.039.467-.188.691-.107.164-.16.267-.186.431-.039.257-.085.367-.249.563-.851 1.033-1.838 2.102-2.835 2.975-.4.345-.763.495-1.315.334-1.161-.334-2.554-.944-3.395-1.78-.95-.945-1.314-1.579-1.514-3.01-.993 1.218-2.04 2.44-3.092 3.405-.203.188-.338.253-.683.092-.955-.445-2.12-1.175-2.216-2.319-.022-.267-.04-.552-.05-.858a27.047 27.047 0 0 0-3.292 4.096c-.142.221-.249.275-.552.154-1.26-.492-2.315-1.44-2.853-2.704-.228-.531-.313-.88-.595-1.204-.898 1.806-1.514 3.758-2.13 5.728-.16.491-.385.848-.923.595a7.106 7.106 0 0 1-.88-.51c-.374-.245-.805-.456-1.008-.79-.089.156-.231.306-.47.491-1.036.809-1.988 1.596-3.053 2.398-.505.38-.805.445-1.585.067a4.034 4.034 0 0 1-.922-.588c-1.062-.865-1.757-1.496-1.717-3.056.039-1.731.274-2.957.72-4.467-.421-.071-.83-.2-1.216-.385a6.873 6.873 0 0 0-.463 1.927c-.035.375-.313.4-.612.225-.599-.346-1.02-.62-1.568-1.122-.313-.292-.502-.52-.38-1.033.22-.934.843-1.646.829-2.708-.003-.306.09-.37.406-.245.652.26 1.161.516 1.738.93.35.252.481.42.417.85.606.068 1.144-.092 1.642-.616.335-.801.777-1.635 1.25-2.28.222-.302.386-.252.635-.131.698.342 1.26.705 1.738 1.115.42.367.438.613.264 1.058a3.716 3.716 0 0 1-1.165 1.574c-.837 1.739-1.578 3.919-1.639 5.85-.014.52.221.398.535.163.527-.399 1.03-.819 1.553-1.225.51-.395 1.35-1.069 1.88-1.008.122.014.179.007.357-.079.406-.199.83-.263.997.043.424-2.529.827-5.13.937-7.648.022-.474.022-.623-.075-1.047-.092-.428.26-.58.649-.463.68.206 1.058.374 1.653.798.317.224.53.452.473.94a35.43 35.43 0 0 1-.21 1.575c.485-.934 1.753-2.48 2.45-3.15.222-.21.222-.238.546-.16.16.04.3.011.442-.128.274-.264.516-.677.709-.994.124-.203.274-.224.548-.082.41.21.794.478 1.14.78.378.335.805.766.527 1.25-.25.442-.563.856-.95 1.187-.165.142-.232.164-.457.06-.224-.1-.328-.103-.584.136a13.207 13.207 0 0 0-1.927 2.266c.452.42.62.719.908 1.46.1.25.228.598.4.844.163.239.195.157.338-.042 1.068-1.5 2.479-2.9 3.833-4.136.317-.289.502-.342.744-.153.06-1.657.16-3.313.21-4.507.007-.174-.007-.456-.128-.595-.285-.317.114-.498.413-.452.723.114 1.368.41 1.949.876.356.289.498.563.445 1.112-.146 1.478-.264 4.136-.274 5.582-.004.466.174.413.449.135a112.92 112.92 0 0 0 2.778-2.917c.064-1.183.22-2.37.413-3.776.029-.218.04-.396.029-.595-.022-.35.107-.535.47-.435.77.21 1.254.524 1.856.983.285.218.349.367.327.695-.046.78-.167 1.557-.284 2.33-.303 1.977-.613 5.19.199 7.138.242.578.527.542 1.001.228zM22.66 35.26c-.52-.41.27-.463.698-.35 1.055.275 1.796.71 2.643 1.547 1.254 1.243 1.493 2.572 1.009 4.449-.61 2.35-1.66 4.827-3.474 6.511-.726.677-.79.777-1.845.314-.634-.278-1.14-.606-1.724-1.119-.659-.577-.873-.922-1.036-2.026-.456-3.135.284-8.304 3.718-9.27a.033.033 0 0 0 .011-.056zm2.07 2.696c-.136 2.323-1.354 4.685-2.729 6.523-.21.285-.399.484-.442-.029-.228-2.671.325-5.104 2.387-6.797.381-.313.816-.277.784.303zm-8.906 1.817c-.117-.007-.181-.1-.231-.289-.132-.523-.478-.861-.638-1-.17-.147-.385.092-.474.22-1.642 2.359-2.13 4.91-2.148 7.713-.003.737.264.976.652.213 1.154-2.269 2.116-4.342 2.882-6.775.01-.036-.007-.082-.043-.082zm53.982-2.44c.591-.132 1.186-.25 1.785-.356-.481-2.013-1.001-4.122-1.56-6.102.555 1.368 1.271 3.754 1.816 6.059 2.02-.342 4.065-.53 6.116-.588 0-.862.011-1.824.036-2.69.068.863.135 1.825.203 2.687a49.9 49.9 0 0 1 7.47.413c.381-2.544.905-5.383 1.535-7.727a52.753 52.753 0 0 0-2.557-.349c-.52 2.42-.948 5.08-1.347 7.51.257-2.444.492-5.134.873-7.563a48.783 48.783 0 0 0-5.981-.281c-.05 1.093-.11 2.418-.107 3.344a53.45 53.45 0 0 1-.242-3.32c-.916.022-1.799.072-2.683.15.221 1.824.4 3.908.57 5.938-.32-2.009-.598-4.075-.833-5.913-.816.078-1.62.182-2.397.313.509 2.597.95 5.45.837 6.83-.374-2.277-.82-4.664-1.311-6.748-1.571.293-3.042.695-4.353 1.226.816 2.251 1.503 4.859 2.13 7.167zm-53.39 13.992c.694.175 1.19.453 1.752.976.852.795 1.012 1.642.684 2.84-.413 1.495-1.125 3.077-2.35 4.15-.492.43-.535.495-1.251.199a4.239 4.239 0 0 1-1.165-.713c-.449-.367-.591-.587-.702-1.293-.217-1.41-.032-3.473.92-4.777-1.183.164-2.42-.509-3.627-1.596-1.945-1.748-3.299-3.383-3.263-6.158.046-3.573 1.168-8.055 3.904-10.53l.05-.043c-1.396 1.061-2.632 1.62-4.136.21-.541-.513-1.09-1.179-1.425-1.849-.413-.83-.391-1.706.036-2.525 1.571-3.046 3.755-3.883 7.025-3.983 3.003-.089 5.553-1.293 7.968-3.006 1.076-.766 2.088-.674 2.978-.203.253-1.646.61-3.256.951-4.749-.377.196-.776.41-1.136.616-1.04.606-1.792 1.044-3.341-.124-.499-.374-1.122-.934-1.436-1.49-.933-1.652.029-3.073 1.404-4.05.93-1.033 4.477-2.529 5.813-3.099.37-2.518 3.146-2.56 5.066-2.012 4.958-1.831 10.6-3.644 15.812-4.496 3.292-.538 6.23 1.422 6.099 4.877-.082 2.194-2.49 3.263-4.136 1.777-3.918.45-8.407 1.853-12.175 3.128 2.386-.26 4.135.52 5.888 2.148.83-1.906 2.903-4.396 5.236-4.075 2.487-.477 4.973 1.268 6.056 3.427.128-.168.274-.328.438-.47.054-.563.1-1.133.125-1.696.01-.182.018-.296-.022-.474-.466-2.109 1.457-3.676 3.456-3.067.762.232 1.353.477 2.016.92.018-2.188 1.247-3.132 3.409-2.74.923.167 1.614.331 2.226.702.225-2.273 1.917-2.726 3.887-2.063.751.253 1.45.606 2.048 1.133.392-2.583 2.116-3.213 4.585-1.899 2.3 1.226 2.632 2.544 2.187 4.977 2.244-1.055 4.107.58 3.993 2.963a.873.873 0 0 1 .27-.075c-.153-3.013 1.034-6.43 3.82-7.85 2.878-1.575 6.928-.467 8.556 2.4 1.724 3.035.82 6.487-.94 9.27-1.173 1.848-1.226 2.881-.474 4.876 1.524.52 3.223 1.165 4.346 1.699 2.144 1.022 2.664 3.131 1.68 5.187.286.897.136 1.78-.384 2.568-.192 1.165-.972 2.105-2.14 2.38a100.4 100.4 0 0 0-1.607 4.089c.456.88.46 1.838.01 2.714-.092 1.154-.769 2.063-1.848 2.512-.72 2.725-1.368 3.865-4.457 3.897-.805.01-1.713-.036-2.49-.239a8.487 8.487 0 0 1-3.69-.014c-.998.235-3.199.317-4.2.146-.987.231-3.07.164-4.118-.05-.698.128-1.906.007-2.625-.118-2.54-.441-3.31-1.763-3.897-4.189-1.02-.502-1.621-1.46-1.692-2.59a25.555 25.555 0 0 1-2.469 2.501c-.972.848-2.127 1.169-3.384.805-1.884-.541-3.566-1.41-4.873-2.892-.342.36-.68.698-1.012 1.004-.356.328-.73.538-1.111.649.37.146.51.377.488.9-.064 1.472-.492 2.982-.577 4.343-.04.567.181.413.345.246.382-.392 1.543-1.7 2.102-1.635 1.215.139 1.293 1.019.484 1.681-.634.52-1.218 1.026-1.87 1.543-.31.245-.498.292-.99.067-.214-.1-.35-.17-.584-.352-.666-.52-1.108-.898-1.119-1.846-.003-.131.011-.316.032-.537-.51.15-.95.285-1.407.466-.135 1.44-.335 2.896-.552 3.367-.096.213-.239.334-.513.206a4.575 4.575 0 0 1-.548-.32c-.114-.075-.24-.147-.35-.221-.295.38-.59.755-.904 1.179-.374.498-.45.516-1.112.224-.573-.25-1.047-.634-1.332-1.147-.61.745-1.279 1.479-1.977 2.049-.196.16-.356.231-.534.131-.357-.174-.755-.413-1.03-.73-.035.26-.139.499-.338.656-.3.238-.602.477-.92.715-.32.24-.505.282-.997.043a2.703 2.703 0 0 1-.577-.367c-.281-.231-.523-.434-.705-.666-.36.666-.809 1.283-1.364 1.778-.467.416-.506.48-1.165.174a4.074 4.074 0 0 1-1.069-.723c-.043-.04-.085-.078-.125-.117-.395.57-.773 1.125-1.193 1.702-.235.32-.403.413-.937.328a2.673 2.673 0 0 1-.655-.185c-.617-.253-1.073-.463-1.368-.983-.31.698-.663 1.385-1.037 2.051-.078.143-.1.207-.302.193-.353-.029-.98-.25-1.582-.563-.588.488-1.136.962-1.75 1.443-.31.249-.494.292-.986.067a2.514 2.514 0 0 1-.588-.352c-.666-.517-1.104-.898-1.118-1.842a4.85 4.85 0 0 1 .032-.538c-.506.146-.951.285-1.404.463-.139 1.44-.338 2.9-.552 3.37-.1.21-.242.331-.513.203a4.78 4.78 0 0 1-.552-.317c-.345-.228-.773-.406-.695-.87.114-.68.229-1.317.335-1.948l-.292-.84a.534.534 0 0 1 .257-.649c.096-.05.192-.096.281-.142.075-.588.128-1.186.157-1.82.014-.296.014-.392-.046-.656-.057-.267.163-.363.406-.288.424.128.659.231 1.03.495.191.135.366.292.362.566 0 .232-.01.542-.028.894.292-.107.648-.224.809-.203.231.032.324.018.48-.032a.522.522 0 0 1 .204-.007c.089-.613.174-1.222.22-1.67a3.158 3.158 0 0 0-.007-.489c-.605.186-1.232-.035-2.49-.587-.972-.428-1.806-1.008-2.575-1.735-.374.837-.983 2.198-1.543 2.914-.089.135-.178.26-.27.377zm35.867-9.397c-.94-.164-1.863-.744-2.625-1.4-1.093 1.468-1.849 3.181-4.121 2.29a7.226 7.226 0 0 1-.656-.295 4.096 4.096 0 0 1-.214.698c-.163.41-.263.791-.306 1.247-.021.235-.196.25-.381.142a4.793 4.793 0 0 1-.98-.705c-.117-.103-.203-.196-.242-.32a3.407 3.407 0 0 1-.766 1.154.612.612 0 0 1 .097.032c.537.178 1.178.527 1.104 1.175-.107.923-.253 2.323-.278 3.228-.01.41.228.206.381.075a15.017 15.017 0 0 0 1.493-1.482c.028-1.066.206-2.166.36-3.157.07-.455.056-.769.594-.544.2.085.37.17.535.288.484.35.584.474.448 1.204-.192 1.054-.452 2.369-.349 3.573.029.32.146.196.278.018.27-.364 1.072-1.521 1.478-1.585.072-.011.186-.004.278-.072l.054-.31-.292-.844a.53.53 0 0 1 .256-.645c.096-.05.189-.1.282-.146.074-.584.128-1.182.156-1.82.015-.296.011-.388-.046-.652-.06-.27.16-.363.403-.292.427.132.662.235 1.033.499.188.135.367.288.363.566 0 .232-.01.538-.029.89.289-.106.649-.224.81-.199.23.029.323.018.48-.032a.46.46 0 0 1 .203-.007c.085-.616.175-1.222.22-1.674.033-.339-.045-.677-.02-.898zm-10.782 3.188c-.727.442-1.639.51-2.608.054-.281-.132-.548-.292-.816-.453-.602.481-1.2.959-1.81 1.425a.136.136 0 0 1 .036.029c.727-.3 1.543.085 2.063.62.399.41.627.833.709 1.307.185.1.37.22.534.36.232.192.296.278.164.709-.185.598-.549 1.353-.56 1.97-.006.313.143.235.336.088.33-.249.74-.687 1.068-.943.339-.264.52-.278.624-.214-.004-1.436.2-3.285.281-4.56a2.33 2.33 0 0 0-.021-.392zm-6.793 2.002c-.902.328-1.796.2-2.825-.303-1.275-.616-2.79-1.923-3.402-3.184-.752 2.009-1.849 3.943-3.43 5.414-.321.3-.592.549-.83.745.605.146.826.342.797.994-.06 1.475-.488 2.981-.577 4.342-.039.567.182.417.346.25.196-.2.588-.635 1.004-1.005a.788.788 0 0 1-.124-.338c-.036-.442.477-.531.904-.56.656-.042.912.154.959.463l.028.011.171.178a.184.184 0 0 0 .043-.046c.859-1.23 1.293-2.127 1.738-3.377-.025-1.019.086-1.927.42-2.886.079-.22.186-.217.357-.188.477.075.883.192 1.24.352.32.14.374.285.349.581-.054.677-.346 1.575-.531 2.209-.11.68.039 1.55.267 2.386.082.317.203.2.346 0 .245-.331.47-.677.708-1.011.236-.332.617-.884.944-.944a.261.261 0 0 0 .16-.079c-.05-1.31.19-2.928.938-4.004zm52.702-33.78c.752.648 1.51.46 2.138-.242-.478 1.108-1.814 1.168-2.138.242zm-1.695 6.519c.659-1.557.577-2.725.38-4.357.343 1.083.703 3.17-.38 4.357zm5.974-5.607c.634-1.667.872-2.796.406-4.798.794 1.524.38 3.73-.406 4.798zm-2.836-4.77c.94.15 1.133 1.443 1.008 2.216-.124.77-.709 1.938-1.65 1.788-.94-.153-1.128-1.443-1.004-2.216.122-.773.71-1.938 1.646-1.788zm-.766 3.576a1.751 1.751 0 0 1-.21-.936c.06.246.399 1.054.663.983-.389-.499-.424-1.233-.3-1.828.1-.488.35-1.061.766-1.357-.31-.135-.833.663-.94.873.107-.452.306-.741.484-.937-.555.132-.901 1.001-.98 1.471-.078.488-.014 1.468.517 1.732zm2.223 10.192c-.292-.89-.702-2.127-.591-3.142.11 1.176.534 2.145.89 3.235l.1.035c.103.032.196.064.278.096-1.211-3.152-1.567-4.894.474-8.118.716-1.13 1.307-2.151 1.368-3.594.053-1.318-.196-2.736-1.35-3.566-.296-.214-.606-.303-.945-.417 1.087.859 1.529 2.209 1.46 3.855-.06 1.563-.548 2.3-1.36 3.587-1.902 3-1.692 5.033-.63 7.936.103.032.203.064.306.093zm-1.097-.317c-.98-2.953-.709-5.244 1.03-7.99.715-1.13 1.21-1.856 1.267-3.299a5.365 5.365 0 0 0-.256-1.898c-.32-.973-.898-1.635-1.585-1.927a.074.074 0 0 0-.1.046l-.246.759.072-.841c.007-.086-.125-.114-.154-.029l-.43 1.315.113-1.343a.071.071 0 0 0-.07-.078c-.738-.004-1.522.374-2.217 1.193-.976 1.154-1.321 3.003-1.093 4.691.502 3.701 1.004 5.361-1.54 8.272.25.05.5.107.742.167.402.1.78.26 1.054.58.374-.192.83-.241 1.447-.102.659.15 1.314.31 1.966.484zm-7.035 15.588c-2.127-.224-4.325-.174-6.32.01 1.357-.498 4.478-.448 6.32-.01zm-.959-.823a33.105 33.105 0 0 0-5.45.09c1.147-.467 3.438-.407 5.45-.09zm.83-10.22c-2.208-.249-4.47-.253-6.316-.07.788-.542 4.703-.343 6.316.07zm-.944-.826c-1.613-.167-3.117-.178-4.56-.036.984-.474 3.46-.306 4.56.036zm4.802 10.134c1.806.243 3.598.574 5.368.983 1.13-3.352 2.259-6.087 2.711-7.092a29.509 29.509 0 0 0-1.272-.406c-.801 2.066-1.56 4.389-2.269 6.487.503-2.109 1.18-4.535 1.999-6.565-.83-.242-1.675-.46-2.576-.66-.456 1.422-.9 3.086-1.296 4.514.263-1.457.541-3.153.887-4.595a47.13 47.13 0 0 0-2.017-.381c-.587 2.415-1.111 5.25-1.535 7.715zm5.547 1.026c.228.054.455.11.683.168.83-2.248 1.767-4.806 2.79-6.968a36.739 36.739 0 0 0-.748-.27c-.987 2.226-1.906 4.798-2.725 7.07zm-9.608-7.69a93.365 93.365 0 0 0-.51 5.45c-.238-1.375.004-4.254.51-5.45zm8.55 10.526c-.26.83-.485 1.799-.716 2.643.185-.88.338-1.87.555-2.679a50.325 50.325 0 0 0-4.82-.851 73.535 73.535 0 0 0-.36 3.013c.043-.958.086-2.07.179-3.038a46.517 46.517 0 0 0-6.79-.339c.129 1.293.317 2.711.467 3.969.043.363.32.484.641.498.741.032 1.4.011 2.084-.064.399-.039.83-.075.898-.584l.299-2.162.256 2.137c.032.264.214.47.474.538.734.182 1.724.171 2.487 0 .252-.057.413-.253.484-.502.314-1.154.363-1.468.705-2.53-.131 1.094-.16 1.443-.15 2.551.008.37.268.51.588.563.599.1 1.23.1 1.874.075.645-.025.688-.078.93-.93.189-.673.374-1.478.588-2.148l-.674-.16zm-1.632-16.24c-.174.584-.324 1.318-.492 1.923.691.132 1.368.278 2.034.431.179-.612.35-1.364.546-1.977a.559.559 0 0 0-.367-.705 39.731 39.731 0 0 0-3.399-.908c-.484-.11-.99-.057-1.15.513-.193.676-.353 1.492-.524 2.172.926.132 1.845.282 2.746.453.2-.606.392-1.332.606-1.902zM72.641 41.59c-.1-.485-.224-1.108-.327-1.593-.567.097-1.126.207-1.689.332.16.623.335 1.389.488 2.02.15.62.353 1.097 1.073 1.26.146.033.349.04.327-.181l-.089-.844.278.915c.04.132.146.221.285.235.242.025.492.04.745.054.31.018.62-.178.651-.5.104-1.06-.032-2.076-.167-3.301.306 1.1.566 2.226.716 3.38.043.328.281.463.584.488.656.057 1.5.118 2.155.079a.558.558 0 0 0 .524-.58c-.06-1.265-.107-2.68-.135-3.948-1.874.064-3.744.25-5.597.563.075.527.15 1.161.178 1.62zm1.87-16.133c-.046-.599-.096-1.35-.142-1.97.11.616.25 1.357.35 1.955a43.647 43.647 0 0 1 3.077-.117c-.018-.802-.046-1.714-.05-2.426-.003-.513-.48-.58-.88-.567-1.81.072-3.416.2-5.18.588a.48.48 0 0 0-.363.58c.14.603.268 1.476.435 2.277a37.512 37.512 0 0 1 2.754-.32zm19.853.972c-.16.385-.289.93-.428 1.322a35.22 35.22 0 0 1 2.394.844c.153-.303.292-.737.453-1.037.306-.577.48-1.065-.278-1.4l-.656-.288a.262.262 0 0 0-.328.107l-.666 1.122.342-1.261a.256.256 0 0 0-.15-.307 26.61 26.61 0 0 0-2.336-.865c-.392-.118-.93-.292-1.133.22-.242.624-.46 1.386-.687 2.013.997.242 1.959.51 2.878.798.2-.388.385-.905.595-1.268zm-9.547-.652c.128-.67.246-1.478.396-2.148.103-.466-.196-.833-.642-.94-.456-.11-.958-.214-1.474-.296a.258.258 0 0 0-.292.185l-.24.841.026-.87c.007-.316-.51-.384-.577-.07l-.417 1.902.028-1.938a.26.26 0 0 0-.238-.26 15.95 15.95 0 0 0-1.564-.057c-.588.01-1.311.117-1.382.844-.064.684-.107 1.575-.16 2.355 2.169.014 4.377.174 6.536.452zm-13.625.096c-.175-.662-.37-1.46-.552-2.116a.628.628 0 0 0-.738-.452c-1.247.264-2.365.545-3.587.965-.972.335-.652 1.222-.331 1.931.128.289.274.712.395 1.001 1.464-.588 3.089-1.026 4.813-1.329zm21.377 13.604c-2.18-.573-4.243-1.025-6.477-1.328 1.846-.096 4.813.591 6.647 1.068.225.057.218-.47-.292-.605-7.562-1.988-15.83-2.505-22.976-.542-.484.132-.538.592-.303.531 1.169-.303 2.996-.702 4.328-.53a29.044 29.044 0 0 0-4.235.819c-.196.053-.118.374.082.324 1.133-.27 2.187-.467 3.437-.417a34.733 34.733 0 0 0-3.316.652c-.317.078-.06.545.37.442 7.264-1.728 14.987-1.222 22.179.637.377.096.687-.288.449-.352-1.571-.41-3.153-.791-4.752-1.07 1.784-.045 3.06.36 4.762.749.21.05.303-.324.097-.378zm3.857-9.496c-1.816-.752-3.637-1.39-5.532-1.874 2.01.189 3.954.95 5.803 1.653.224.085.203-.346-.178-.506-8.375-3.545-22.4-5.026-30.425-1.308-.491.228-.288.613-.05.506 1.482-.64 3.77-1.182 5.586-1.264-1.917.31-3.744.844-5.518 1.642-.175.078-.021.42.153.346 1.2-.5 2.89-.927 4.218-.994a21.57 21.57 0 0 0-4.072 1.321c-.31.14.068.588.485.403 7.463-3.327 21.02-2.227 28.971 1.015.338.139.66-.15.438-.242-2.632-1.097-6.073-2.102-8.838-2.515a33.647 33.647 0 0 1 8.82 2.159c.221.085.35-.257.14-.342zm-65-6.224c-.042.267-.081.531-.117.798 2.358-.78 5.083-2.044 7.007-3.598 1.493-1.207-1.133-.751-1.674-.598-1.639.463-4.061 1.984-5.215 3.398zm6.039 24.038c-.036 1.436-.556 2.96-1.521 4-.164.175-.382.328-.403-.039-.096-1.428.306-3.808 1.147-4.224.05.07.136.185.235.1.047-.043.096-.083.136-.115.313-.245.416-.146.406.278zM17.31 53.256c-.093 1.482-.916 2.989-1.845 4.16-.146.182-.275.31-.303-.017-.153-1.703.22-3.256 1.617-4.332.256-.203.552-.178.53.189zm31.219-50.23c2.337-1.515 5.77-.435 4.89 1.324-.23.456-.761.41-1.15.079-1.068-.909-1.977-1.283-3.74-1.404zm1.126-1.048C51.78.838 54.859-.309 57.395.076c1.272.196 2.127 2.6-.142 2.037-2.547-.627-5.197-.755-7.598-.135zM53.43.735c1.068-.282 3.238-.58 4.207-.136.292.136.455.692-.004.542C56.209.678 54.848.656 53.43.735zm-.46 2.483c-.288-.292-1.222-.734-2.223-.62 1.183.167 1.86.666 2.084 1.329.189.548.734-.1.139-.71zM6.52 24.513c-1.685-.538-5.333-.193-4.157 1.959-.948.242-1.753.659-2.134 1.474-.556 1.19-.043 2.227.923 2.198-.032.606-.022 1.397.213 1.992.588 1.489 2.896.894 2.444-.538-.11-.36-.35-.727-.588-1.019 1.457.164 1.286-1.61.873-2.415 1.257.634 2.216.007 2.878-.958.641-.934 1.621-2.202 2.921-2.049 1.72.2 3.217.357 4.955.032.235-.042.193-.31.14-.477-.047-.139-.133-.224-.307-.064-.616.563-3.388.527-4.741.3-.585-.1-1.083-.275-1.725-.264-1.71.02-2.71.398-2.835 2.222-.046-.712.071-1.16.196-1.467.007-.018-.014-.04-.032-.029-2.027 1.09-3.516 3.22-3.242 5.133-.68-2.685 2.024-5.418 4.218-6.03zm-3.114 5.332c-.057-.434-.16-.826-.338-1.175.303-.086.392.716.338 1.175zm.738-4.591a2.58 2.58 0 0 0-1.165.455c.253-.345.94-.73 1.165-.456zm-2.426 2.604c-.356.313-.58.737-.695 1.278-.003-.52.285-1.417.695-1.278zm62.388 17.5a2.82 2.82 0 0 0-.217.962c-.25-.057 0-.659.217-.961zm-2.304 2.954c.31.12.652.167.997.128-.313.146-.944.153-.997-.128zm2.721-.895c.37-.081.695-.295.987-.634-.2.37-.752.891-.987.634z" fill="url(#paint0_linear_1_4)"/><defs><linearGradient id="paint0_linear_1_4" x1="50.09" y1="59.785" x2="50.09" y2="-.308" gradientUnits="userSpaceOnUse"><stop stop-color="#614034"/><stop offset="1" stop-color="#8C5340"/></linearGradient></defs></svg>