<svg height="15" viewBox="0 0 18 15" width="18" xmlns="http://www.w3.org/2000/svg"><path d="m16.988 6.088.028.007h-12.044l3.786-3.795a.985.985 0 0 0 .287-.7.983.983 0 0 0 -.287-.698l-.59-.59a.977.977 0 0 0 -.695-.287.977.977 0 0 0 -.695.287l-6.491 6.49a.975.975 0 0 0 -.287.697.98.98 0 0 0 .287.699l6.49 6.49a.977.977 0 0 0 .696.287c.264 0 .51-.102.696-.287l.589-.59a.975.975 0 0 0 .287-.695.946.946 0 0 0 -.287-.682l-3.83-3.816h12.074c.542 0 .998-.467.998-1.01v-.833c0-.543-.47-.974-1.012-.974z" fill="#fff"/></svg>