<svg width="22" height="16" viewBox="0 0 22 16" fill="none" xmlns="http://www.w3.org/2000/svg">
<g clip-path="url(#clip0_25_14)">
<path d="M18.8519 0.212994C18.7139 0.0763859 18.5276 -0.000244141 18.3334 -0.000244141C18.1392 -0.000244141 17.9529 0.0763859 17.8149 0.212994L15.4869 2.51999C14.0866 1.84242 12.5553 1.47862 10.9999 1.45399C5.03992 1.45399 0.352923 7.29799 0.155923 7.54699C0.0549385 7.67468 0 7.8327 0 7.99549C0 8.15828 0.0549385 8.31631 0.155923 8.44399C1.57698 10.1455 3.2674 11.6025 5.15992 12.757L3.14792 14.75C3.04318 14.8509 2.97109 14.9808 2.94096 15.1231C2.91083 15.2653 2.92406 15.4133 2.97892 15.548C3.01577 15.6378 3.07024 15.7192 3.13912 15.7876C3.20799 15.856 3.28988 15.9098 3.37992 15.946C3.51567 16.0007 3.66462 16.014 3.80791 15.9841C3.9512 15.9542 4.0824 15.8825 4.18492 15.778L18.8519 1.24099C18.9198 1.17369 18.9736 1.09362 19.0104 1.0054C19.0471 0.917182 19.066 0.822561 19.066 0.726994C19.066 0.631427 19.0471 0.536805 19.0104 0.448586C18.9736 0.360368 18.9198 0.280298 18.8519 0.212994V0.212994ZM7.33292 7.99499C7.33419 7.51707 7.43 7.04412 7.61484 6.60339C7.79969 6.16265 8.0699 5.76285 8.40992 5.42699C9.09933 4.74454 10.0299 4.36119 10.9999 4.35999C11.7141 4.36473 12.4108 4.58119 13.0019 4.98199L7.96192 9.97999C7.55766 9.39651 7.33848 8.70482 7.33292 7.99499ZM21.8439 7.54499C20.7452 6.22625 19.4846 5.05131 18.0919 4.04799L14.6159 7.49399C14.6449 7.65899 14.6619 7.82599 14.6669 7.99399C14.666 8.47195 14.5706 8.945 14.3861 9.38591C14.2016 9.82681 13.9317 10.2269 13.5919 10.563C12.9018 11.2453 11.9704 11.628 10.9999 11.628C10.831 11.6232 10.6625 11.6065 10.4959 11.578L8.00192 14.048C8.97092 14.363 9.98192 14.528 10.9999 14.536C16.9599 14.536 21.6479 8.69099 21.8439 8.44299C21.9449 8.31531 21.9998 8.15728 21.9998 7.99449C21.9998 7.8317 21.9449 7.67368 21.8439 7.54599V7.54499Z" fill="#807F1B"/>
</g>
<defs>
<clipPath id="clip0_25_14">
<rect width="22" height="16" fill="white"/>
</clipPath>
</defs>
</svg>
