<svg width="40" height="20" viewBox="0 0 40 20" fill="none" xmlns="http://www.w3.org/2000/svg">
<path d="M38 0H22C20.8954 0 20 0.89543 20 2V18C20 19.1046 20.8954 20 22 20H38C39.1046 20 40 19.1046 40 18V2C40 0.89543 39.1046 0 38 0Z" fill="#807F1B"/>
<path d="M36.0001 7.75802C36.0016 7.85422 35.9831 7.94967 35.9457 8.03833C35.9083 8.12699 35.853 8.20691 35.7831 8.27302L30.1781 13.758L29.1251 14.788C29.0563 14.8568 28.9743 14.911 28.8841 14.9474C28.7939 14.9838 28.6973 15.0017 28.6001 15C28.5025 15.002 28.4055 14.9842 28.3149 14.9478C28.2244 14.9114 28.1421 14.857 28.0731 14.788L27.0201 13.758L24.2181 11.015C24.148 10.949 24.0924 10.8691 24.0549 10.7805C24.0174 10.6918 23.9987 10.5963 24.0001 10.5C24.0001 10.298 24.0721 10.126 24.2171 9.98502L25.2701 8.95502C25.3389 8.88597 25.421 8.83152 25.5114 8.79492C25.6017 8.75832 25.6986 8.74033 25.7961 8.74202C26.0031 8.74202 26.1781 8.81302 26.3231 8.95502L28.5991 11.189L33.6771 6.21202C33.7461 6.14303 33.8284 6.08869 33.9189 6.05226C34.0095 6.01583 34.1065 5.99807 34.2041 6.00002C34.4101 6.00002 34.5861 6.07002 34.7301 6.21202L35.7831 7.24202C35.8531 7.30825 35.9085 7.38834 35.9459 7.47717C35.9833 7.56601 36.0017 7.66166 36.0001 7.75802V7.75802Z" fill="white"/>
<path d="M18 0H2C0.89543 0 0 0.89543 0 2V18C0 19.1046 0.89543 20 2 20H18C19.1046 20 20 19.1046 20 18V2C20 0.89543 19.1046 0 18 0Z" fill="#FAFAFA"/>
<path d="M18 0.5H2C1.17157 0.5 0.5 1.17157 0.5 2V18C0.5 18.8284 1.17157 19.5 2 19.5H18C18.8284 19.5 19.5 18.8284 19.5 18V2C19.5 1.17157 18.8284 0.5 18 0.5Z" stroke="#CCCCCC" stroke-opacity="0.7"/>
</svg>
