<svg width="40" height="20" viewBox="0 0 40 20" fill="none" xmlns="http://www.w3.org/2000/svg">
<path d="M20 10C20 4.47715 15.5228 0 10 0C4.47715 0 0 4.47715 0 10C0 15.5228 4.47715 20 10 20C15.5228 20 20 15.5228 20 10Z" fill="#FAFAFA"/>
<path d="M19.5 10C19.5 4.75329 15.2467 0.5 10 0.5C4.75329 0.5 0.5 4.75329 0.5 10C0.5 15.2467 4.75329 19.5 10 19.5C15.2467 19.5 19.5 15.2467 19.5 10Z" stroke="#CCCCCC" stroke-opacity="0.7"/>
<path d="M40 10C40 4.47715 35.5228 0 30 0C24.4772 0 20 4.47715 20 10C20 15.5228 24.4772 20 30 20C35.5228 20 40 15.5228 40 10Z" fill="#807F1B"/>
<path d="M35 10C35 7.23858 32.7614 5 30 5C27.2386 5 25 7.23858 25 10C25 12.7614 27.2386 15 30 15C32.7614 15 35 12.7614 35 10Z" fill="white"/>
</svg>
