<svg width="20" height="12" viewBox="0 0 20 12" fill="none" xmlns="http://www.w3.org/2000/svg">
<path d="M19.8582 5.589C19.6792 5.36 15.4182 0 10.0002 0C4.58316 0 0.320162 5.36 0.142162 5.589C0.0503631 5.70633 0.000488281 5.85102 0.000488281 6C0.000488281 6.14898 0.0503631 6.29367 0.142162 6.411C0.321162 6.64 4.58216 12 10.0002 12C15.4172 12 19.6802 6.64 19.8582 6.411C19.95 6.29367 19.9998 6.14898 19.9998 6C19.9998 5.85102 19.95 5.70633 19.8582 5.589V5.589ZM10.0002 9.333C9.1162 9.333 8.26843 8.98185 7.64337 8.35679C7.01832 7.73173 6.66716 6.88397 6.66716 6C6.66716 5.11603 7.01832 4.26827 7.64337 3.64321C8.26843 3.01815 9.1162 2.667 10.0002 2.667C10.8841 2.667 11.7319 3.01815 12.3569 3.64321C12.982 4.26827 13.3332 5.11603 13.3332 6C13.3332 6.88397 12.982 7.73173 12.3569 8.35679C11.7319 8.98185 10.8841 9.333 10.0002 9.333V9.333Z" fill="#807F1B"/>
</svg>
