<svg height="17" viewBox="0 0 20 17" width="20" xmlns="http://www.w3.org/2000/svg"><g><path d="m5.625 10h-2.5c-.16576 0-.32473-.06585-.44194-.18306s-.18306-.27618-.18306-.44194.06585-.32473.18306-.44194.27618-.18306.44194-.18306h1.875v-3.75h-1.875c-.16576 0-.32473-.06585-.44194-.18306s-.18306-.27618-.18306-.44194.06585-.32473.18306-.44194.27618-.18306.44194-.18306h2.5c.16576 0 .32473.06585.44194.18306s.18306.27618.18306.44194v5c0 .16576-.06585.32473-.18306.44194s-.27618.18306-.44194.18306zm4.375 0h-1.25c-.33152 0-.64946-.1317-.88388-.36612s-.36612-.55236-.36612-.88388v-3.75c0-.33152.1317-.64946.36612-.88388s.55236-.36612.88388-.36612h1.875c.1658 0 .3247.06585.4419.18306.1173.11721.1831.27618.1831.44194s-.0658.32473-.1831.44194c-.1172.11721-.2761.18306-.4419.18306h-1.875v1.25h1.25c.3315 0 .6495.1317.8839.36612s.3661.55236.3661.88388v1.25c0 .33152-.1317.64946-.3661.88388s-.5524.36612-.8839.36612zm-1.25-2.5v1.25h1.25v-1.25zm6.25 2.5h-1.25c-.3315 0-.6495-.1317-.8839-.36612s-.3661-.55236-.3661-.88388v-3.75c0-.33152.1317-.64946.3661-.88388s.5524-.36612.8839-.36612h1.25c.3315 0 .6495.1317.8839.36612s.3661.55236.3661.88388v3.75c0 .33152-.1317.64946-.3661.88388s-.5524.36612-.8839.36612zm-1.25-5v3.75h1.25v-3.75z"/><path d="m5.625 7.5h-2.5c-.16576 0-.32473-.06585-.44194-.18306s-.18306-.27618-.18306-.44194.06585-.32473.18306-.44194.27618-.18306.44194-.18306h2.5c.16576 0 .32473.06585.44194.18306s.18306.27618.18306.44194-.06585.32473-.18306.44194-.27618.18306-.44194.18306zm4.375 7.5c-5.6075 0-10-2.1962-10-5 .0249302-.52807.172569-1.04307.431204-1.50415.258636-.46107.621156-.85554 1.058796-1.1521.13086-.10114.29646-.14635.46056-.12574.16411.02062.31337.10538.41516.23574.10178.13037.1478.29574.12799.45995-.01981.1642-.10384.31388-.23371.4163-.28176.18593-.51859.43226-.69329.72112s-.28289.613-.31671.94888c0 1.7738 3.59375 3.75 8.75 3.75.1658 0 .3247.0658.4419.1831.1173.1172.1831.2761.1831.4419s-.0658.3247-.1831.4419c-.1172.1173-.2761.1831-.4419.1831zm1.875-.0875c-.0821.0039-.1641-.0083-.2415-.0361-.0773-.0278-.1484-.0705-.2092-.1257-.0609-.0553-.1102-.122-.1452-.1963-.0351-.0743-.0552-.1548-.0591-.2369s.0083-.1641.0361-.2415c.0278-.0773.0705-.1484.1257-.2092.0553-.0609.122-.1102.1963-.1452.0743-.0351.1548-.0552.2369-.0591 3.9537-.3787 6.935-1.955 6.935-3.6625-.0338-.33588-.142-.66002-.3167-.94888s-.4115-.53519-.6933-.72112c-.1306-.10211-.2153-.25192-.2355-.41649-.01-.08148-.0038-.16413.0182-.24323.0219-.0791.0592-.1531.1098-.21778s.1134-.11876.1848-.15917c.0715-.0404.1502-.06633.2317-.07632.1645-.02016.3304.02588.461.12799.4378.29616.8004.69036 1.059 1.15126.2587.4609.4063.9758.431 1.50374 0 2.4313-3.3162 4.4513-8.065 4.91z"/><path d="m8.12514 16.875c-.12377.0002-.24483-.0363-.34781-.105-.10299-.0686-.18327-.1663-.23067-.2807-.0474-.1143-.05977-.2402-.03557-.3615.02421-.1214.08392-.2329.17155-.3203l1.43375-1.4325-1.43375-1.4325c-.05811-.0581-.1042-.1271-.13565-.203s-.04764-.1573-.04764-.2395.01619-.1636.04764-.2395.07754-.1449.13565-.203c.11736-.1174.27653-.1833.4425-.1833.08218 0 .16356.0162.23948.0476.07593.0315.14491.0776.20302.1357l1.87496 1.875c.0582.0581.1044.127.1359.203.0315.0759.0478.1573.0478.2395s-.0163.1636-.0478.2395c-.0315.076-.0777.1449-.1359.203l-1.87496 1.875c-.05815.058-.12716.104-.20308.1353-.07593.0313-.15729.0473-.23942.0472zm9.99996-13.125c-.4972 0-.9742-.19754-1.3258-.54917-.3516-.35164-.5492-.82855-.5492-1.32583s.1976-.974195.5492-1.325825c.3516-.351631.8286-.549175 1.3258-.549175.4973 0 .9742.197544 1.3259.549175.3516.35163.5491.828545.5491 1.325825s-.1975.97419-.5491 1.32583c-.3517.35163-.8286.54917-1.3259.54917zm0-2.5c-.1657 0-.3247.06585-.4419.18306s-.1831.27618-.1831.44194.0659.32473.1831.44194.2762.18306.4419.18306c.1658 0 .3248-.06585.442-.18306s.183-.27618.183-.44194-.0658-.32473-.183-.44194-.2762-.18306-.442-.18306z"/></g></svg>